<svg id="_0518_data_processing" xmlns="http://www.w3.org/2000/svg" xmlns:xlink="http://www.w3.org/1999/xlink" viewBox="0 0 500 500" data-imageid="data-processing-1-20" imageName="Data Processing 1" class="illustrations_image" style="width: 166px;"><defs><style>.cls-1_data-processing-1-20{fill:#020202;opacity:.1;}.cls-1_data-processing-1-20,.cls-2_data-processing-1-20,.cls-3_data-processing-1-20,.cls-4_data-processing-1-20,.cls-5_data-processing-1-20,.cls-6_data-processing-1-20,.cls-7_data-processing-1-20,.cls-8_data-processing-1-20,.cls-9_data-processing-1-20,.cls-10_data-processing-1-20,.cls-11_data-processing-1-20,.cls-12_data-processing-1-20,.cls-13_data-processing-1-20,.cls-14_data-processing-1-20,.cls-15_data-processing-1-20,.cls-16_data-processing-1-20,.cls-17_data-processing-1-20,.cls-18_data-processing-1-20,.cls-19_data-processing-1-20,.cls-20_data-processing-1-20,.cls-21_data-processing-1-20{stroke-width:0px;}.cls-1_data-processing-1-20,.cls-3_data-processing-1-20,.cls-6_data-processing-1-20,.cls-22_data-processing-1-20{isolation:isolate;}.cls-2_data-processing-1-20{fill:url(#linear-gradient);}.cls-3_data-processing-1-20{opacity:.18;}.cls-3_data-processing-1-20,.cls-6_data-processing-1-20,.cls-21_data-processing-1-20{fill:#68e1fd;}.cls-4_data-processing-1-20{fill:url(#linear-gradient-11-data-processing-1-20);}.cls-5_data-processing-1-20{fill:url(#linear-gradient-10-data-processing-1-20);}.cls-6_data-processing-1-20{opacity:.53;}.cls-22_data-processing-1-20{fill:none;opacity:.43;stroke:#f8f8f8;stroke-linecap:round;stroke-linejoin:round;stroke-width:.35px;}.cls-23_data-processing-1-20{opacity:.41;}.cls-24_data-processing-1-20{opacity:.5;}.cls-7_data-processing-1-20{fill:url(#linear-gradient-4-data-processing-1-20);}.cls-8_data-processing-1-20{fill:url(#linear-gradient-2-data-processing-1-20);}.cls-9_data-processing-1-20{fill:url(#linear-gradient-3-data-processing-1-20);}.cls-10_data-processing-1-20{fill:url(#linear-gradient-8-data-processing-1-20);}.cls-11_data-processing-1-20{fill:url(#linear-gradient-9-data-processing-1-20);}.cls-12_data-processing-1-20{fill:url(#linear-gradient-7-data-processing-1-20);}.cls-13_data-processing-1-20{fill:url(#linear-gradient-5-data-processing-1-20);}.cls-14_data-processing-1-20{fill:url(#linear-gradient-6-data-processing-1-20);}.cls-15_data-processing-1-20{fill:#605860;}.cls-16_data-processing-1-20{fill:#473f47;}.cls-17_data-processing-1-20{fill:#c14834;}.cls-18_data-processing-1-20{fill:#fff;}.cls-19_data-processing-1-20{fill:#fcbcb8;}.cls-20_data-processing-1-20{fill:#eaeaea;}</style><linearGradient id="linear-gradient-data-processing-1-20" x1="-71.16" y1="2429.81" x2="-490.06" y2="2142.55" gradientTransform="translate(783.94 2540.1) rotate(-5.71) scale(1 -1)" gradientUnits="userSpaceOnUse"><stop offset="0" stop-color="#231f20"/><stop offset=".08" stop-color="#231f20" stop-opacity=".69"/><stop offset=".21" stop-color="#231f20" stop-opacity=".32"/><stop offset="1" stop-color="#231f20" stop-opacity="0"/></linearGradient><linearGradient id="linear-gradient-2-data-processing-1-20" x1="-52.8" y1="2403.04" x2="-471.7" y2="2115.77" xlink:href="#linear-gradient-data-processing-1-20"/><linearGradient id="linear-gradient-3-data-processing-1-20" x1="-52.46" y1="2402.55" x2="-471.36" y2="2115.29" xlink:href="#linear-gradient-data-processing-1-20"/><linearGradient id="linear-gradient-4-data-processing-1-20" x1="-45.95" y1="2393.06" x2="-464.85" y2="2105.8" xlink:href="#linear-gradient-data-processing-1-20"/><linearGradient id="linear-gradient-5-data-processing-1-20" x1="-583.82" y1="2226.15" x2="-546.59" y2="2174.4" gradientTransform="translate(836.07 2308.5) scale(1 -1)" xlink:href="#linear-gradient-data-processing-1-20"/><linearGradient id="linear-gradient-6-data-processing-1-20" x1="-607.61" y1="2207.37" x2="-567.63" y2="2163.26" gradientTransform="translate(836.07 2308.5) scale(1 -1)" gradientUnits="userSpaceOnUse"><stop offset="0" stop-color="#fff"/><stop offset="1" stop-color="#fff" stop-opacity="0"/></linearGradient><linearGradient id="linear-gradient-7-data-processing-1-20" x1="-647.61" y1="2051.46" x2="-787.29" y2="1800.84" gradientTransform="translate(836.07 2308.5) scale(1 -1)" xlink:href="#linear-gradient-data-processing-1-20"/><linearGradient id="linear-gradient-8-data-processing-1-20" x1="-608.31" y1="2113" x2="-533.78" y2="2113" gradientTransform="translate(836.07 2308.5) scale(1 -1)" gradientUnits="userSpaceOnUse"><stop offset="0" stop-color="#eaeaea"/><stop offset="1" stop-color="#a3a3a3"/></linearGradient><linearGradient id="linear-gradient-9-data-processing-1-20" x1="-1251.17" y1="984.45" x2="-1230.57" y2="954.05" gradientTransform="translate(959.5 1824.8) rotate(32.51) scale(1.08 -.99) skewX(-7.57)" xlink:href="#linear-gradient-8-data-processing-1-20"/><linearGradient id="linear-gradient-10-data-processing-1-20" x1="-1239.24" y1="970.98" x2="-1215.62" y2="957.79" gradientTransform="translate(959.5 1824.8) rotate(32.51) scale(1.08 -.99) skewX(-7.57)" xlink:href="#linear-gradient-8-data-processing-1-20"/><linearGradient id="linear-gradient-11-data-processing-1-20" x1="-1935.5" y1="1047.85" x2="-1883.31" y2="1010.89" gradientTransform="translate(1426 1708.82) rotate(19.41) scale(.93 -1.01) skewX(11.23)" xlink:href="#linear-gradient-data-processing-1-20"/></defs><g id="background_data-processing-1-20"><path class="cls-3_data-processing-1-20 targetColor" d="M428.6,362.1c-15.52,21.1-41.49,45.53-68.2,40.42-120.94-23.25-113.56,7.09-216.28-2.91-12.7-1.28-27.11-3.14-43.59-5.81-15.82-2.59-30.72-9.2-43.27-19.18-2.15-1.69-4.3-3.43-6.45-5.29-12.64-10.93-24.32-24.82-23.91-41.44.52-20.6,8.22-40.45,16.56-59.02,11.27-25.08,26.97-51.52,22.81-79.44-4.16-27.63,1.45-61.49,15.98-85.17,23.25-37.22,63.93-46.29,104.61-47.13,26.88-.55,54.54,1.05,79.04,12.12,25.75,11.62,46.49,33.13,72.64,43.09,17.43,6.57,36.5,7.85,53.55,15.26,21.47,9.33,38.04,27.81,48.79,48.61,10.75,20.81,16.16,43.91,20.2,66.83,6.94,38.91-9.18,87.41-32.49,119.05Z" style="fill: rgb(123, 23, 152);"/><path class="cls-22_data-processing-1-20" d="M253.7,178.08c.39.08.77.2,1.13.38.16.06.33.06.49,0"/></g><g id="data_2_data-processing-1-20"><polygon class="cls-21_data-processing-1-20 targetColor" points="363.83 248.31 342.91 242 346.4 180 367.29 186.27 363.83 248.31" style="fill: rgb(123, 23, 152);"/><polygon class="cls-21_data-processing-1-20 targetColor" points="388.21 255.63 367.32 249.36 369.06 218.35 389.96 224.63 388.21 255.63" style="fill: rgb(123, 23, 152);"/><polygon class="cls-21_data-processing-1-20 targetColor" points="412.07 262.81 391.18 256.5 396.03 169.85 416.95 176.13 412.07 262.81" style="fill: rgb(123, 23, 152);"/><polygon class="cls-21_data-processing-1-20 targetColor" points="436.1 270.02 415.21 263.74 421.51 151.14 442.44 157.42 436.1 270.02" style="fill: rgb(123, 23, 152);"/><polygon class="cls-2_data-processing-1-20" points="363.83 248.31 342.91 242 346.4 180 367.29 186.27 363.83 248.31"/><polygon class="cls-8_data-processing-1-20" points="388.21 255.63 367.32 249.36 369.06 218.35 389.96 224.63 388.21 255.63"/><polygon class="cls-9_data-processing-1-20" points="412.07 262.81 391.18 256.5 396.03 169.85 416.95 176.13 412.07 262.81"/><polygon class="cls-7_data-processing-1-20" points="436.1 270.02 415.21 263.74 421.51 151.14 442.44 157.42 436.1 270.02"/><path class="cls-21_data-processing-1-20 targetColor" d="M450.78,276.85l-121.84-37.17v-.87c.2-4.24,5-104.17,6.45-115.01l2.24.32c-1.39,10.2-5.81,103.79-6.39,113.91l120.15,36.58-.61,2.24Z" style="fill: rgb(123, 23, 152);"/><polygon class="cls-21_data-processing-1-20 targetColor" points="360.55 247.21 339.63 240.93 343.12 178.92 364.04 185.2 360.55 247.21" style="fill: rgb(123, 23, 152);"/><polygon class="cls-21_data-processing-1-20 targetColor" points="384.96 254.56 364.04 248.28 365.78 217.25 386.7 223.55 384.96 254.56" style="fill: rgb(123, 23, 152);"/><polygon class="cls-21_data-processing-1-20 targetColor" points="408.82 261.71 387.89 255.43 392.75 168.78 413.67 175.06 408.82 261.71" style="fill: rgb(123, 23, 152);"/><polygon class="cls-21_data-processing-1-20 targetColor" points="432.85 268.94 411.93 262.67 418.23 150.07 439.15 156.34 432.85 268.94" style="fill: rgb(123, 23, 152);"/><rect class="cls-21_data-processing-1-20 targetColor" x="295.62" y="195.94" width="1.28" height="48.76" transform="translate(3.64 445.44) rotate(-74.21)" style="fill: rgb(123, 23, 152);"/></g><g id="data_1_data-processing-1-20"><polygon class="cls-21_data-processing-1-20 targetColor" points="258.62 181.39 246.06 158.52 249.96 132.6 251.24 132.81 247.4 158.29 259.75 180.78 258.62 181.39" style="fill: rgb(123, 23, 152);"/><path class="cls-21_data-processing-1-20 targetColor" d="M266.49,94.16c2.17.42,4.18,1.43,5.81,2.91l7.41-10.37c-10.66-10.29-26.91-7.12-36.29,7.06-1.22,1.84-2.28,3.79-3.17,5.81l9.68,4.47c3.43-7.21,10.17-11.25,16.56-9.88Z" style="fill: rgb(123, 23, 152);"/><path class="cls-13_data-processing-1-20" d="M279.6,86.75l-7.41,10.37c-1.64-1.48-3.65-2.48-5.81-2.91-6.39-1.37-13.13,2.67-16.68,9.97l-2.91-1.34h0l.2-.46-6.74-3.11c.82-1.87,1.8-3.66,2.91-5.38,9.53-14.27,25.77-17.43,36.44-7.15Z"/><path class="cls-21_data-processing-1-20 targetColor" d="M251.38,126.35l-7.38,10.34c-.74-.86-1.42-1.78-2.03-2.73l6.71-9.44c-3.57-4.85-4.8-11.03-3.37-16.88.36-1.66.89-3.28,1.6-4.82l2.91,1.37c-.86,1.65-1.5,3.41-1.92,5.23-1.42,5.88-.14,12.09,3.49,16.94Z" style="fill: rgb(123, 23, 152);"/><path class="cls-16_data-processing-1-20" d="M255.8,143.79c-4.62-1.02-8.77-3.55-11.8-7.18l4.68-12.18,2.7,1.8c5.58,6.92,15.14,6.39,21.3-1.22,6.16-7.61,6.65-19.35,1.08-26.15-.47-.59-.98-1.15-1.54-1.66l4.74-12.26,2.7,1.77c10.66,10.32,11.62,30.16,2.27,44.37-6.54,9.79-16.59,14.73-26.09,12.7h-.03Z"/><path class="cls-21_data-processing-1-20 targetColor" d="M263.79,92.33c2.16.45,4.16,1.45,5.81,2.91l7.35-10.29c-10.66-10.29-26.91-7.15-36.29,7.06-1.22,1.84-2.27,3.78-3.14,5.81l9.65,4.5c3.63-7.29,10.26-11.36,16.62-10Z" style="fill: rgb(123, 23, 152);"/><path class="cls-21_data-processing-1-20 targetColor" d="M248.68,124.47l-6.6,9.44-.67.9c-8.05-9.15-9.56-24.15-3.98-36.99l2.91,1.37,6.74,3.11-.2.46h0c-.71,1.53-1.25,3.14-1.6,4.79-1.43,5.86-.19,12.06,3.4,16.91Z" style="fill: rgb(123, 23, 152);"/><path class="cls-14_data-processing-1-20" d="M248.68,124.47l-6.6,9.44-.67.9c-8.05-9.15-9.56-24.15-3.98-36.99l2.91,1.37,6.74,3.11-.2.46h0c-.71,1.53-1.25,3.14-1.6,4.79-1.43,5.86-.19,12.06,3.4,16.91Z"/><path class="cls-15_data-processing-1-20" d="M253.09,142.02c-4.62-1.04-8.76-3.57-11.8-7.21l7.38-10.37c5.61,6.94,15.14,6.39,21.3-1.19,6.16-7.58,6.68-19.38,1.08-26.15-.46-.6-.98-1.15-1.54-1.66l7.44-10.52c10.66,10.29,11.62,30.16,2.27,44.37-6.48,9.79-16.56,14.7-26.15,12.67l.03.06Z"/></g><g id="cloud_data-processing-1-20"><polygon class="cls-21_data-processing-1-20 targetColor" points="235.81 193.88 136.89 172.76 136.89 142.16 138.17 142.16 138.17 171.71 236.07 192.64 235.81 193.88" style="fill: rgb(123, 23, 152);"/><path class="cls-18_data-processing-1-20" d="M167.26,136.15c0,8.72-5.64,15.4-12.64,14.82h0l-32.49-2.73c-7-.58-12.67-8.17-12.67-16.97s5.81-15.4,12.67-14.82l4.65.38v-1.28c0-8.08,5.23-14.18,11.62-13.63,6.39.55,11.62,7.53,11.62,15.6h0c.03.43.03.85,0,1.28l4.68.41c6.89.58,12.55,8.17,12.55,16.94Z"/><path class="cls-6_data-processing-1-20 targetColor" d="M167.26,136.15c0,8.72-5.64,15.4-12.64,14.82h0l-32.49-2.73c-7-.58-12.67-8.17-12.67-16.97s5.81-15.4,12.67-14.82l4.65.38v-1.28c0-8.08,5.23-14.18,11.62-13.63,6.39.55,11.62,7.53,11.62,15.6h0c.03.43.03.85,0,1.28l4.68.41c6.89.58,12.55,8.17,12.55,16.94Z" style="fill: rgb(123, 23, 152);"/><path class="cls-18_data-processing-1-20" d="M163.16,137.43c0,8.72-5.64,15.4-12.64,14.82h0l-32.49-2.64c-7-.67-12.52-8.25-12.52-17.06s5.67-15.4,12.67-14.82l4.65.38v-1.28c0-8.08,5.2-14.18,11.62-13.63,6.42.55,11.62,7.53,11.62,15.6h0v1.28l4.65.41c6.77.58,12.44,8.17,12.44,16.94Z"/></g><g id="character_data-processing-1-20"><path class="cls-12_data-processing-1-20" d="M194.89,376.66l-36.7,16.53c-4.68,2.12-9.36,4.24-14.06,6.28-12.7-1.28-27.11-3.14-43.59-5.81-15.82-2.59-30.72-9.2-43.27-19.18-2.15-1.69-4.3-3.43-6.45-5.29l72.01-10.93c8.5-1.05,16.88-2.87,25.05-5.43,2.91-.99,17.12-2.06,11.94,5.29-.69.82-1.58,1.45-2.59,1.83l-23.65,11.45c-1.9.73-3.57,1.97-4.82,3.57-1.27,1.71-.95,4.12.73,5.43.91.42,1.91.59,2.91.49,22.37-.67,43.96-9.47,66.37-9.62,1.1,2.06-1.6,4.36-3.86,5.38Z"/><path class="cls-10_data-processing-1-20" d="M227.76,208.68l22.81-41.23c.33-.59.99-.91,1.66-.78l48.24,7.7c1.23.24,2.03,1.43,1.79,2.66-.03.18-.09.35-.16.51l-25.86,46.84-48.47-15.69Z"/><path class="cls-11_data-processing-1-20" d="M178.59,210.91l.61,2.15c.2.74.74,1.33,1.45,1.6l43.15,15.98c.54.23,1.13.32,1.71.26l47.89-2.91c.98-.08,1.7-.93,1.63-1.91,0,0,0,0,0-.01v-2.06l-96.44-13.11Z"/><path class="cls-16_data-processing-1-20" d="M226.51,208.38l22.81-41.35c.31-.59.97-.91,1.63-.78l48.27,7.67c1.23.25,2.01,1.45,1.76,2.68-.03.17-.09.33-.16.49l-25.83,46.96-48.47-15.66Z"/><path class="cls-5_data-processing-1-20" d="M274.98,224.05l-50.33,2.88c-.38.03-.75-.03-1.1-.17l-44.95-15.84,47.92-2.53,48.47,15.66Z"/><polygon class="cls-16_data-processing-1-20" points="202.91 210.48 243.65 223.38 265.59 222.39 226.16 209.17 202.91 210.48"/><polygon class="cls-16_data-processing-1-20" points="193.9 215.3 210.79 213.67 231.21 220.04 214.42 222.16 193.9 215.3"/><path class="cls-20_data-processing-1-20" d="M196.49,217.25c.59.9,1.43,1.6,2.41,2.03,1.45.55,7.73,2.91,7.73,2.91.65.09,1.29-.14,1.74-.61l-11.88-4.33Z"/><polygon class="cls-18_data-processing-1-20" points="228.13 207.37 273.26 222.19 297.26 177.7 249.49 168.69 228.13 207.37"/><path class="cls-21_data-processing-1-20 targetColor" d="M154.24,349.84c-1.93,2.28-1.65,5.69.62,7.62,1.35,1.15,3.18,1.56,4.9,1.1.39-.1.75-.29,1.05-.55.67-.61.76-1.63,1.37-2.27.66-.5,1.42-.83,2.24-.96,1.43-.51,2.78-1.21,4.01-2.09.18-.12.35-.27.49-.44.12-.22.19-.47.2-.73.29-1.3.08-2.66-.58-3.81-.36-.44-.82-.8-1.34-1.05-.95-.59-2.05-.91-3.17-.93-.88.05-1.74.24-2.56.55-2.31.64-4.49,1.7-6.42,3.11" style="fill: rgb(123, 23, 152);"/><path class="cls-19_data-processing-1-20" d="M158.74,339.49l-3.84,12.93s.73,3.25,4.82,1.89c4.1-1.37,7.56-11.62,7.56-11.62l-8.54-3.2Z"/><path class="cls-21_data-processing-1-20 targetColor" d="M199.72,366.52c1.06-.14,2.13-.21,3.2-.2,1.11.02,2.16.49,2.91,1.31,1.04,1.64.72,3.8-.76,5.06-1.48,1.16-3.27,1.87-5.14,2.03-1.16.26-2.36.26-3.52,0-1.45-.41-2.91-1.57-4.27-1.16-.61.26-1.18.62-1.69,1.05-2.06,1.42-4.85,1.09-6.51-.78-.41-.61-.72-1.29-.9-2.01-.82-2.24-.18-4.75,1.6-6.33,2.27-1.57,4.01-.49,6.19.23,2.87.9,5.9,1.17,8.89.81Z" style="fill: rgb(123, 23, 152);"/><path class="cls-19_data-processing-1-20" d="M197.83,353.99l-5.81,13.45c-1.66,1-3.63,1.37-5.55,1.05l-2.32-.84,2.01-18.8,11.68,5.14Z"/><path class="cls-19_data-processing-1-20" d="M239.99,217.13c.38-.49.87-1.05,1.48-.96s.73.32,1.1.23c.22-.09.41-.24.55-.44.89-.89,1.86-1.69,2.91-2.38.64-.54,1.41-.91,2.24-1.08,1.21-.13,2.37.51,2.91,1.6.55,1.06.68,2.28.38,3.43-.31,1.13-.78,2.2-1.39,3.2-.4.73-.89,1.42-1.45,2.03-2.12,1.48-4.48,2.59-6.97,3.28-.25.14-.53.23-.81.26-.49,0-.87-.44-1.16-.84-.9-1.22-1.45-2.67-1.57-4.18.14-1.54.77-3,1.8-4.16Z"/><path class="cls-19_data-processing-1-20" d="M217.38,202.54c.27-.1.57-.1.84,0,.14.12.27.26.38.41.49.49,1.31.52,1.95.78.82.42,1.43,1.17,1.66,2.06.24.89.35,1.81.32,2.73.03.48-.03.96-.17,1.42-.15.47-.58.81-1.08.84-.4-.06-.78-.22-1.1-.46-.66-.35-1.42-.47-2.15-.32-.95.3-1.87.71-2.73,1.22-1.02.81-2.5.64-3.31-.38-.19-.23-.33-.5-.41-.79-.81-1.66-1.69-3.55,0-4.91,1.67-1.38,3.67-2.28,5.81-2.62Z"/><path class="cls-16_data-processing-1-20" d="M165.66,264.38c.41,7.08,1.22,14.14,2.44,21.13,1.57,6.94,2.53,14.82,2.53,14.82l-14.53,40.33s8.72,5.81,14.53,3.49c5.81-2.32,20.02-33.18,20.02-33.18l5.46-35.22-14.53-16.07-15.92,4.71Z"/><path class="cls-16_data-processing-1-20" d="M205.67,261.56s10.26,32.78,10.26,41.29-12.41,50.42-12.41,50.42c0,0-13.45,4.42-16.59,0l-2.96-4.42,7.47-42.34s-10.72-22.05-12.61-27.75c-1.15-3.48-1.98-7.06-2.47-10.69l29.32-6.51Z"/><path class="cls-19_data-processing-1-20" d="M201.4,171.83c1.22,2.32,1.99,4.84,2.3,7.44.27,2.66-.9,5.25-3.08,6.8-.66.28-1.27.65-1.83,1.1-1.95,1.95.29,5.43-.84,7.9-.94,1.69-2.99,2.44-4.79,1.74-1.74-.76-3.06-2.27-3.57-4.1-.49-1.81-.7-3.68-.64-5.55l-.2-11.13c-.27-2.48.14-4.99,1.16-7.26,1.45-2.39,4.12-3.78,6.92-3.6,2.73.38,3.55,4.45,4.59,6.65Z"/><path class="cls-21_data-processing-1-20 targetColor" d="M241.44,227.36s-22.05,19.06-23.62,19.06-11.36-11.97-11.36-11.97l-.78,27.11c-2.73,1.56-5.56,2.91-8.48,4.07-5.08,2.21-10.59,3.27-16.13,3.11-5.42-.13-10.72-1.63-15.4-4.36l6.6-63.93s12.49-8.72,16.77-7.35c3.06.52,6.18.52,9.24,0,6.16-.78,12.47,7.35,12.47,7.35l8.19,26.15,19.21-6.63c2.54,1.53,3.86,4.47,3.31,7.38Z" style="fill: rgb(123, 23, 152);"/><path class="cls-17_data-processing-1-20" d="M199.45,159.74c-3.06-1.87-6.53-2.95-10.11-3.14-3.95-.57-7.97.56-11.04,3.11-4.18,3.84-4.62,10.2-4.56,15.87s.15,11.88-3.37,16.3c-2.91,3.75-7.87,5.29-11.62,8.17-3.8,2.72-6.21,6.97-6.6,11.62-.9,17.43,26.44,9.88,35.45,6.04,1.59-.6,3.05-1.47,4.33-2.59,1.35-1.38,2.35-3.06,2.91-4.91,2.12-6.18,1.75-12.94-1.02-18.86-.41-.87-.87-1.95-.29-2.73.32-.35.72-.62,1.16-.78,2.3-.99,3.8-3.25,3.81-5.75-.36-1.78-1.18-3.44-2.38-4.79-1.21-1.4-1.62-3.31-1.1-5.09.64-1.37,2.15-2.03,3.25-2.91,2.32-2.27,3.03-5.72,1.8-8.72-.16-.31-.37-.59-.61-.84Z"/><path class="cls-1_data-processing-1-20" d="M206.46,234.45l-.78,27.11c-2.73,1.56-5.56,2.91-8.48,4.07l2.03-40.07,7.24,8.89Z"/><g class="cls-23_data-processing-1-20"><polygon class="cls-21_data-processing-1-20 targetColor" points="246.12 201.27 241.04 199.49 243.62 194.99 248.71 196.76 246.12 201.27" style="fill: rgb(123, 23, 152);"/></g><polygon class="cls-21_data-processing-1-20 targetColor" points="251.18 203.04 246.09 201.27 250.65 193.25 255.74 195.05 251.18 203.04" style="fill: rgb(123, 23, 152);"/><g class="cls-24_data-processing-1-20"><polygon class="cls-21_data-processing-1-20 targetColor" points="256.2 204.84 251.12 203.04 257.83 191.33 262.92 193.13 256.2 204.84" style="fill: rgb(123, 23, 152);"/></g><polygon class="cls-21_data-processing-1-20 targetColor" points="261.26 206.61 256.17 204.81 264.92 189.5 270.01 191.3 261.26 206.61" style="fill: rgb(123, 23, 152);"/><polygon class="cls-21_data-processing-1-20 targetColor" points="266.32 208.38 261.23 206.58 272.04 187.67 277.13 189.44 266.32 208.38" style="fill: rgb(123, 23, 152);"/><polygon class="cls-4_data-processing-1-20" points="266.32 208.38 261.23 206.58 272.04 187.67 277.13 189.44 266.32 208.38"/></g></svg>