<svg version="1.1" id="Layer_1" xmlns="http://www.w3.org/2000/svg" xmlns:xlink="http://www.w3.org/1999/xlink" x="0px" y="0px" viewBox="0 0 500 500" style="width: 166px;" xml:space="preserve" data-imageid="school-84" imageName="School" class="illustrations_image">
<style type="text/css">
	.st0_school-84{fill:#D1D3D4;}
	.st1_school-84{fill:#FFFFFF;}
	.st2_school-84{fill:#231F20;}
	.st3_school-84{fill:#68E1FD;}
</style>
<path id="Background_school-84" class="st0_school-84" d="M452.9,299.2H319.6c-0.4,0-0.7-0.2-0.7-0.6c0-0.4,0.2-0.7,0.6-0.7c0.1,0,0.1,0,0.2,0h133.3&#10;&#9;c0.4,0,0.7,0.2,0.7,0.6c0,0.4-0.2,0.7-0.6,0.7C453,299.3,453,299.3,452.9,299.2z"/>
<g id="Plant_2_school-84">
	<path class="st1_school-84" d="M125.6,298.6c-0.7-6.5-7-12.3-13.7-11.5c3.9-9.7-2.1-22-12-25.1c-5.8-1.8-13.5,0.4-15.2,6.2&#10;&#9;&#9;c-4.5-5.7-12.7-6.7-18.4-2.2c-3.3,2.6-5.1,6.6-5,10.8c-6.2-3.7-14.7-0.6-19.1,5.1c-3.3,4.3-6.3,11.4-4.8,16.6H125.6z"/>
	<path class="st0_school-84" d="M125.6,299.2H37.4c-0.3,0-0.5-0.2-0.6-0.5c-1.6-5.3,1.4-12.6,4.9-17.2c4.1-5.4,12.4-9,19-5.8&#10;&#9;&#9;c0.3-7.6,6.7-13.5,14.3-13.2c3.6,0.1,7,1.7,9.5,4.3c0.9-2,2.5-3.6,4.4-4.6c3.5-1.8,7.5-2.1,11.2-1c5.1,1.7,9.4,5.5,11.6,10.4&#10;&#9;&#9;c2.3,4.5,2.7,9.8,1.2,14.6c2.9-0.1,5.7,0.9,7.9,2.7c3,2.3,4.9,5.7,5.4,9.4c0,0.2,0,0.4-0.2,0.5C126,299.2,125.8,299.2,125.6,299.2z&#10;&#9;&#9; M37.9,298h87c-0.6-3.1-2.3-5.8-4.8-7.8c-2.2-1.8-5.1-2.7-8-2.4c-0.2,0-0.5-0.1-0.6-0.2c-0.1-0.2-0.2-0.4-0.1-0.6&#10;&#9;&#9;c3.5-9.9-1.8-20.7-11.6-24.2c-3.4-1-7.1-0.7-10.2,0.9c-2,1-3.5,2.7-4.2,4.9c-0.1,0.3-0.5,0.5-0.8,0.4c-0.1,0-0.2-0.1-0.3-0.2&#10;&#9;&#9;c-4.3-5.4-12.1-6.3-17.5-2c-3.1,2.5-4.9,6.3-4.7,10.3c0,0.4-0.2,0.7-0.6,0.7c-0.1,0-0.3,0-0.4-0.1c-6.2-3.7-14.3-0.3-18.2,4.9&#10;&#9;&#9;C39.5,286.6,36.7,293.1,37.9,298z"/>
	<path class="st0_school-84" d="M55.6,286.6c-0.3,0-0.6-0.3-0.6-0.6c-0.1-1.9,0.5-3.7,1.7-5.1c1.2-1.3,2.5-2.5,4.1-3.3c1.4-0.9,3-1.5,4.7-1.8&#10;&#9;&#9;c1.7-0.3,3.5-0.1,5.1,0.7c0.3,0.2,0.4,0.6,0.2,0.9c-0.2,0.3-0.5,0.4-0.9,0.3c0,0,0,0,0,0c-1.3-0.7-2.8-0.9-4.3-0.6&#10;&#9;&#9;c-1.5,0.3-3,0.9-4.3,1.6c-1.4,0.7-2.7,1.8-3.7,3c-1,1.2-1.5,2.7-1.4,4.2C56.2,286.3,56,286.6,55.6,286.6L55.6,286.6z"/>
	<path class="st0_school-84" d="M57.5,295.5c-0.3,0-0.6-0.3-0.6-0.6c-0.7-6.6,4.1-12.4,10.6-13.1c3.2-0.3,6.3,0.6,8.8,2.6&#10;&#9;&#9;c0.3,0.2,0.3,0.6,0.1,0.9c-0.2,0.3-0.6,0.3-0.9,0.1l0,0c-4.6-3.7-11.3-3-15,1.5c-1.8,2.2-2.6,5-2.3,7.8&#10;&#9;&#9;C58.2,295.2,57.9,295.5,57.5,295.5L57.5,295.5z"/>
</g>
<g id="School_Building_school-84">
	<polygon class="st1_school-84" points="88.5,133.2 310.8,133.2 319.6,179.3 79.7,179.3 &#9;"/>
	<path class="st0_school-84" d="M319.6,180H79.7c-0.4,0-0.7-0.3-0.6-0.7c0,0,0-0.1,0-0.1l8.8-46.1c0.1-0.3,0.3-0.5,0.6-0.5h222.3&#10;&#9;&#9;c0.3,0,0.6,0.2,0.6,0.5l8.8,46.1c0,0.2,0,0.4-0.1,0.5C320,179.9,319.8,180,319.6,180z M80.4,178.7h238.4l-8.5-44.8H89L80.4,178.7z"/>
	<rect x="85" y="179.3" class="st1_school-84" width="229.3" height="120.7"/>
	<path class="st0_school-84" d="M314.3,300.7H85c-0.4,0-0.7-0.3-0.7-0.6V179.3c0-0.4,0.3-0.6,0.7-0.6h229.3c0.4,0,0.6,0.3,0.6,0.6v0v120.7&#10;&#9;&#9;C314.9,300.4,314.6,300.7,314.3,300.7C314.3,300.7,314.3,300.7,314.3,300.7z M85.6,299.4h228V180h-228L85.6,299.4z"/>
	<polygon class="st1_school-84" points="201.6,104.7 123.4,179.3 275.9,179.3 &#9;"/>
	<path class="st0_school-84" d="M275.9,180H123.4c-0.3,0-0.5-0.2-0.6-0.4c-0.1-0.2,0-0.5,0.2-0.7l78.2-74.6c0.2-0.2,0.6-0.3,0.9,0c0,0,0,0,0,0&#10;&#9;&#9;l74.2,74.6c0.2,0.2,0.2,0.5,0.1,0.7C276.4,179.8,276.1,180,275.9,180z M125,178.7h149.3l-72.7-73.1L125,178.7z"/>
	<polygon class="st1_school-84" points="201.2,113.1 132.5,179.3 266.8,179.3 &#9;"/>
	<path class="st0_school-84" d="M266.8,180H132.5c-0.3,0-0.5-0.2-0.6-0.4c-0.1-0.2,0-0.5,0.1-0.7l68.7-66.2c0.2-0.2,0.7-0.2,0.9,0l65.6,66.2&#10;&#9;&#9;c0.2,0.2,0.2,0.5,0.1,0.7C267.3,179.8,267,180,266.8,180z M134.1,178.7h131.2L201.2,114L134.1,178.7z"/>
	<circle class="st1_school-84" cx="199.6" cy="153.6" r="14.7"/>
	<path class="st0_school-84" d="M199.6,169c-8.5,0-15.4-6.9-15.4-15.4s6.9-15.4,15.4-15.4c8.5,0,15.4,6.9,15.4,15.4&#10;&#9;&#9;C215,162.1,208.1,169,199.6,169z M199.6,139.5c-7.8,0-14.1,6.3-14.1,14.1s6.3,14.1,14.1,14.1s14.1-6.3,14.1-14.1c0,0,0,0,0,0&#10;&#9;&#9;C213.7,145.8,207.4,139.5,199.6,139.5L199.6,139.5z"/>
	<rect x="152" y="294" class="st1_school-84" width="95.3" height="6.1"/>
	<path class="st0_school-84" d="M247.3,300.7H152c-0.4,0-0.6-0.3-0.6-0.6V294c0-0.4,0.3-0.6,0.6-0.6h95.3c0.4,0,0.6,0.3,0.6,0.6v6.1&#10;&#9;&#9;C247.9,300.4,247.6,300.7,247.3,300.7C247.3,300.7,247.3,300.7,247.3,300.7z M152.6,299.4h94v-4.8h-94V299.4z"/>
	<rect x="155.4" y="287.9" class="st1_school-84" width="88.5" height="6.1"/>
	<path class="st0_school-84" d="M243.9,294.6h-88.5c-0.4,0-0.6-0.3-0.6-0.6v-6.1c0-0.4,0.3-0.6,0.6-0.6h88.5c0.4,0,0.6,0.3,0.6,0.6v6.1&#10;&#9;&#9;C244.5,294.3,244.2,294.6,243.9,294.6z M156,293.3h87.2v-4.8H156V293.3z"/>
	<rect x="164.2" y="281.8" class="st1_school-84" width="70.8" height="6.1"/>
	<path class="st0_school-84" d="M235,288.5h-70.8c-0.4,0-0.6-0.3-0.6-0.6v-6.1c0-0.4,0.3-0.6,0.6-0.6H235c0.4,0,0.6,0.3,0.6,0.6v6.1&#10;&#9;&#9;C235.6,288.3,235.4,288.5,235,288.5z M164.9,287.2h69.5v-4.8h-69.5L164.9,287.2z"/>
	<rect x="164.2" y="230.9" class="st1_school-84" width="70.8" height="12.4"/>
	<path class="st0_school-84" d="M235,244h-70.8c-0.4,0-0.6-0.3-0.6-0.6v-12.4c0-0.4,0.3-0.6,0.6-0.6H235c0.4,0,0.6,0.3,0.6,0.6v12.4&#10;&#9;&#9;C235.6,243.7,235.4,244,235,244z M164.9,242.7h69.5v-11.2h-69.5L164.9,242.7z"/>
	<rect x="170.3" y="243.4" class="st1_school-84" width="8.5" height="38.4"/>
	<path class="st0_school-84" d="M178.8,282.5h-8.5c-0.4,0-0.6-0.3-0.6-0.6v-38.4c0-0.4,0.3-0.6,0.6-0.6h8.5c0.4,0,0.6,0.3,0.6,0.6v38.4&#10;&#9;&#9;C179.4,282.2,179.1,282.5,178.8,282.5z M171,281.2h7.2V244H171V281.2z"/>
	<rect x="220.5" y="243.4" class="st1_school-84" width="8.5" height="38.4"/>
	<path class="st0_school-84" d="M228.9,282.5h-8.5c-0.4,0-0.6-0.3-0.6-0.6v-38.4c0-0.4,0.3-0.6,0.6-0.6h8.5c0.4,0,0.6,0.3,0.6,0.6v38.4&#10;&#9;&#9;C229.6,282.2,229.3,282.5,228.9,282.5z M221.1,281.2h7.2V244h-7.2V281.2z"/>
	<rect x="181.9" y="243.4" class="st1_school-84" width="35.4" height="38.4"/>
	<path class="st0_school-84" d="M217.4,282.5h-35.5c-0.4,0-0.6-0.3-0.6-0.6v-38.4c0-0.4,0.3-0.6,0.6-0.6h35.4c0.4,0,0.6,0.3,0.6,0.6v38.4&#10;&#9;&#9;C218,282.2,217.7,282.5,217.4,282.5z M182.6,281.2h34.1V244h-34.1V281.2z"/>
	<path class="st0_school-84" d="M199.6,282.5c-0.4,0-0.6-0.3-0.6-0.6v-38.4c0-0.4,0.4-0.6,0.7-0.6c0.3,0,0.5,0.3,0.6,0.6v38.4&#10;&#9;&#9;C200.3,282.2,200,282.5,199.6,282.5z"/>
	<rect x="185.1" y="248.8" class="st1_school-84" width="12.1" height="18.7"/>
	<path class="st0_school-84" d="M197.2,268.1h-12c-0.4,0-0.6-0.3-0.6-0.6v-18.7c0-0.4,0.3-0.6,0.6-0.6h12c0.4,0,0.6,0.3,0.6,0.6v18.7&#10;&#9;&#9;C197.9,267.8,197.6,268.1,197.2,268.1L197.2,268.1z M185.8,266.9h10.8v-17.4h-10.8V266.9z"/>
	<rect x="202.1" y="248.8" class="st1_school-84" width="12.1" height="18.7"/>
	<path class="st0_school-84" d="M214.1,268.1h-12c-0.4,0-0.6-0.3-0.6-0.6v-18.7c0-0.4,0.3-0.6,0.6-0.6h12c0.4,0,0.6,0.3,0.6,0.6v18.7&#10;&#9;&#9;C214.8,267.8,214.5,268.1,214.1,268.1L214.1,268.1z M202.7,266.9h10.8v-17.4h-10.8V266.9z"/>
	<rect x="107.6" y="196.2" class="st1_school-84" width="18" height="24.7"/>
	<path class="st0_school-84" d="M125.6,221.6h-18c-0.4,0-0.7-0.3-0.7-0.6v-24.7c0-0.4,0.3-0.6,0.7-0.6h18c0.4,0,0.6,0.3,0.7,0.6v24.7&#10;&#9;&#9;C126.3,221.3,126,221.6,125.6,221.6z M108.2,220.3H125v-23.4h-16.8V220.3z"/>
	<path class="st0_school-84" d="M116.6,221.6c-0.4,0-0.6-0.3-0.6-0.6v-24.7c0-0.4,0.4-0.6,0.7-0.6c0.3,0,0.5,0.3,0.6,0.6v24.7&#10;&#9;&#9;C117.3,221.3,117,221.6,116.6,221.6z"/>
	<path class="st0_school-84" d="M125.6,204.5h-18c-0.4,0-0.7-0.2-0.7-0.6c0-0.4,0.2-0.7,0.6-0.7c0.1,0,0.1,0,0.2,0h18c0.4,0,0.7,0.2,0.7,0.6&#10;&#9;&#9;c0,0.4-0.2,0.7-0.6,0.7C125.7,204.5,125.7,204.5,125.6,204.5z"/>
	<path class="st0_school-84" d="M125.6,213.8h-18c-0.4,0-0.7-0.2-0.7-0.6c0-0.4,0.2-0.7,0.6-0.7c0.1,0,0.1,0,0.2,0h18c0.4,0,0.7,0.2,0.7,0.6&#10;&#9;&#9;c0,0.4-0.2,0.7-0.6,0.7C125.7,213.8,125.7,213.8,125.6,213.8z"/>
	<rect x="140.8" y="196.2" class="st1_school-84" width="18" height="24.7"/>
	<path class="st0_school-84" d="M158.8,221.6h-18c-0.4,0-0.6-0.3-0.6-0.6v-24.7c0-0.4,0.3-0.6,0.6-0.6h18c0.4,0,0.6,0.3,0.6,0.6v24.7&#10;&#9;&#9;C159.5,221.3,159.2,221.6,158.8,221.6z M141.4,220.3h16.7v-23.4h-16.7V220.3z"/>
	<path class="st0_school-84" d="M149.8,221.6c-0.4,0-0.6-0.3-0.6-0.6v-24.7c0-0.4,0.4-0.6,0.7-0.6c0.3,0,0.5,0.3,0.6,0.6v24.7&#10;&#9;&#9;C150.5,221.3,150.2,221.6,149.8,221.6z"/>
	<path class="st0_school-84" d="M158.8,204.5h-18c-0.4,0-0.6-0.4-0.6-0.7c0-0.3,0.3-0.5,0.6-0.6h18c0.4,0,0.6,0.4,0.6,0.7&#10;&#9;&#9;C159.4,204.3,159.1,204.5,158.8,204.5z"/>
	<path class="st0_school-84" d="M158.8,213.8h-18c-0.4,0-0.6-0.4-0.6-0.7c0-0.3,0.3-0.5,0.6-0.6h18c0.4,0,0.6,0.4,0.6,0.7&#10;&#9;&#9;C159.4,213.6,159.1,213.8,158.8,213.8z"/>
	<rect x="174" y="196.2" class="st1_school-84" width="18" height="24.7"/>
	<path class="st0_school-84" d="M192,221.6h-18c-0.4,0-0.6-0.3-0.6-0.6v-24.7c0-0.4,0.3-0.6,0.6-0.6h18c0.4,0,0.6,0.3,0.6,0.6v24.7&#10;&#9;&#9;C192.6,221.3,192.4,221.6,192,221.6z M174.6,220.3h16.8v-23.4h-16.8L174.6,220.3z"/>
	<path class="st0_school-84" d="M183,221.6c-0.4,0-0.6-0.3-0.6-0.6v-24.7c0-0.4,0.4-0.6,0.7-0.6c0.3,0,0.5,0.3,0.6,0.6v24.7&#10;&#9;&#9;C183.6,221.3,183.4,221.6,183,221.6z"/>
	<path class="st0_school-84" d="M192,204.5h-18c-0.4,0-0.7-0.2-0.7-0.6c0-0.4,0.2-0.7,0.6-0.7c0.1,0,0.1,0,0.2,0h18c0.4,0,0.7,0.2,0.7,0.6&#10;&#9;&#9;c0,0.4-0.2,0.7-0.6,0.7C192.1,204.5,192.1,204.5,192,204.5z"/>
	<path class="st0_school-84" d="M192,213.8h-18c-0.4,0-0.7-0.2-0.7-0.6c0-0.4,0.2-0.7,0.6-0.7c0.1,0,0.1,0,0.2,0h18c0.4,0,0.7,0.2,0.7,0.6&#10;&#9;&#9;c0,0.4-0.2,0.7-0.6,0.7C192.1,213.8,192.1,213.8,192,213.8z"/>
	<rect x="207.2" y="196.2" class="st1_school-84" width="18" height="24.7"/>
	<path class="st0_school-84" d="M225.2,221.6h-18c-0.4,0-0.6-0.3-0.6-0.6v-24.7c0-0.4,0.3-0.6,0.6-0.6h18c0.4,0,0.6,0.3,0.6,0.6v24.7&#10;&#9;&#9;C225.9,221.3,225.6,221.6,225.2,221.6z M207.9,220.3h16.7v-23.4h-16.7V220.3z"/>
	<path class="st0_school-84" d="M216.2,221.6c-0.4,0-0.6-0.3-0.6-0.6v-24.7c0-0.4,0.4-0.6,0.7-0.6c0.3,0,0.5,0.3,0.6,0.6v24.7&#10;&#9;&#9;C216.9,221.3,216.6,221.6,216.2,221.6z"/>
	<path class="st0_school-84" d="M225.2,204.5h-18c-0.4,0-0.6-0.4-0.6-0.7c0-0.3,0.3-0.5,0.6-0.6h18c0.4,0,0.6,0.4,0.6,0.7&#10;&#9;&#9;C225.8,204.3,225.5,204.5,225.2,204.5z"/>
	<path class="st0_school-84" d="M225.2,213.8h-18c-0.4,0-0.6-0.4-0.6-0.7c0-0.3,0.3-0.5,0.6-0.6h18c0.4,0,0.6,0.4,0.6,0.7&#10;&#9;&#9;C225.8,213.6,225.5,213.8,225.2,213.8z"/>
	<rect x="240.4" y="196.2" class="st1_school-84" width="18" height="24.7"/>
	<path class="st0_school-84" d="M258.5,221.6h-18c-0.4,0-0.6-0.3-0.6-0.6v-24.7c0-0.4,0.3-0.6,0.6-0.6h18c0.4,0,0.6,0.3,0.6,0.6v24.7&#10;&#9;&#9;C259.1,221.3,258.8,221.6,258.5,221.6z M241.1,220.3h16.7v-23.4h-16.7L241.1,220.3z"/>
	<path class="st0_school-84" d="M249.4,221.6c-0.4,0-0.6-0.3-0.6-0.6v-24.7c0-0.4,0.4-0.6,0.7-0.6c0.3,0,0.5,0.3,0.6,0.6v24.7&#10;&#9;&#9;C250.1,221.3,249.8,221.6,249.4,221.6z"/>
	<path class="st0_school-84" d="M258.5,204.5h-18c-0.4,0-0.7-0.2-0.7-0.6c0-0.4,0.2-0.7,0.6-0.7c0.1,0,0.1,0,0.2,0h18c0.4,0,0.7,0.2,0.7,0.6&#10;&#9;&#9;c0,0.4-0.2,0.7-0.6,0.7C258.6,204.5,258.5,204.5,258.5,204.5z"/>
	<path class="st0_school-84" d="M258.5,213.8h-18c-0.4,0-0.7-0.2-0.7-0.6c0-0.4,0.2-0.7,0.6-0.7c0.1,0,0.1,0,0.2,0h18c0.4,0,0.7,0.2,0.7,0.6&#10;&#9;&#9;c0,0.4-0.2,0.7-0.6,0.7C258.6,213.8,258.5,213.8,258.5,213.8z"/>
	<rect x="273.6" y="196.2" class="st1_school-84" width="18" height="24.7"/>
	<path class="st0_school-84" d="M291.7,221.6h-18c-0.4,0-0.6-0.3-0.6-0.6v-24.7c0-0.4,0.3-0.6,0.6-0.6l0,0h18c0.4,0,0.6,0.3,0.6,0.6v0v24.7&#10;&#9;&#9;C292.3,221.3,292,221.6,291.7,221.6z M274.3,220.3H291v-23.4h-16.7L274.3,220.3z"/>
	<path class="st0_school-84" d="M282.6,221.6c-0.4,0-0.6-0.3-0.6-0.6v-24.7c0-0.4,0.4-0.6,0.7-0.6c0.3,0,0.5,0.3,0.6,0.6v24.7&#10;&#9;&#9;C283.3,221.3,283,221.6,282.6,221.6z"/>
	<path class="st0_school-84" d="M291.7,204.5h-18c-0.4,0-0.6-0.4-0.6-0.7c0-0.3,0.3-0.5,0.6-0.6h18c0.4,0,0.6,0.4,0.6,0.7&#10;&#9;&#9;C292.2,204.3,292,204.5,291.7,204.5z"/>
	<path class="st0_school-84" d="M291.7,213.8h-18c-0.4,0-0.6-0.4-0.6-0.7c0-0.3,0.3-0.5,0.6-0.6h18c0.4,0,0.6,0.4,0.6,0.7&#10;&#9;&#9;C292.2,213.6,292,213.8,291.7,213.8z"/>
	<rect x="107.6" y="246.3" class="st1_school-84" width="18" height="24.7"/>
	<path class="st0_school-84" d="M125.6,271.7h-18c-0.4,0-0.6-0.3-0.7-0.6v-24.7c0-0.4,0.3-0.6,0.7-0.6h18c0.4,0,0.6,0.3,0.7,0.6v24.8&#10;&#9;&#9;C126.3,271.4,126,271.7,125.6,271.7z M108.2,270.4H125V247h-16.8V270.4z"/>
	<path class="st0_school-84" d="M116.6,271.7c-0.4,0-0.6-0.3-0.6-0.6l0,0v-24.7c0-0.4,0.4-0.6,0.7-0.6c0.3,0,0.5,0.3,0.6,0.6v24.8&#10;&#9;&#9;C117.3,271.4,117,271.7,116.6,271.7z"/>
	<path class="st0_school-84" d="M125.6,254.7h-18c-0.4,0-0.7-0.2-0.7-0.6c0-0.4,0.2-0.7,0.6-0.7c0.1,0,0.1,0,0.2,0h18c0.4,0,0.7,0.2,0.7,0.6&#10;&#9;&#9;c0,0.4-0.2,0.7-0.6,0.7C125.7,254.7,125.7,254.7,125.6,254.7z"/>
	<path class="st0_school-84" d="M125.6,264h-18c-0.4,0-0.7-0.2-0.7-0.6c0-0.4,0.2-0.7,0.6-0.7c0.1,0,0.1,0,0.2,0h18c0.4,0,0.7,0.2,0.7,0.6&#10;&#9;&#9;c0,0.4-0.2,0.7-0.6,0.7C125.7,264,125.7,264,125.6,264z"/>
	<rect x="140.8" y="246.3" class="st1_school-84" width="18" height="24.7"/>
	<path class="st0_school-84" d="M158.8,271.7h-18c-0.4,0-0.6-0.3-0.6-0.6l0,0v-24.7c0-0.4,0.3-0.6,0.6-0.6h18c0.4,0,0.6,0.3,0.6,0.6v24.8&#10;&#9;&#9;C159.5,271.4,159.2,271.7,158.8,271.7z M141.4,270.4h16.7V247h-16.7V270.4z"/>
	<path class="st0_school-84" d="M149.8,271.7c-0.4,0-0.6-0.3-0.6-0.6v-24.7c0-0.4,0.4-0.6,0.7-0.6c0.3,0,0.5,0.3,0.6,0.6v24.8&#10;&#9;&#9;C150.5,271.4,150.2,271.7,149.8,271.7z"/>
	<path class="st0_school-84" d="M158.8,254.7h-18c-0.4,0-0.6-0.4-0.6-0.7c0-0.3,0.3-0.5,0.6-0.6h18c0.4,0,0.6,0.4,0.6,0.7&#10;&#9;&#9;C159.4,254.4,159.1,254.7,158.8,254.7z"/>
	<path class="st0_school-84" d="M158.8,264h-18c-0.4,0-0.6-0.4-0.6-0.7c0-0.3,0.3-0.5,0.6-0.6h18c0.4,0,0.6,0.4,0.6,0.7&#10;&#9;&#9;C159.4,263.7,159.1,264,158.8,264z"/>
	<rect x="240.4" y="246.3" class="st1_school-84" width="18" height="24.7"/>
	<path class="st0_school-84" d="M258.5,271.7h-18c-0.4,0-0.6-0.3-0.6-0.6v-24.7c0-0.4,0.3-0.6,0.6-0.6h18c0.4,0,0.6,0.3,0.6,0.6v24.8&#10;&#9;&#9;C259.1,271.4,258.8,271.7,258.5,271.7z M241.1,270.4h16.7V247h-16.7L241.1,270.4z"/>
	<path class="st0_school-84" d="M249.4,271.7c-0.4,0-0.6-0.3-0.6-0.6l0,0v-24.7c0-0.4,0.4-0.6,0.7-0.6c0.3,0,0.5,0.3,0.6,0.6v24.8&#10;&#9;&#9;C250.1,271.4,249.8,271.7,249.4,271.7z"/>
	<path class="st0_school-84" d="M258.5,254.7h-18c-0.4,0-0.7-0.2-0.7-0.6c0-0.4,0.2-0.7,0.6-0.7c0.1,0,0.1,0,0.2,0h18c0.4,0,0.7,0.2,0.7,0.6&#10;&#9;&#9;c0,0.4-0.2,0.7-0.6,0.7C258.6,254.7,258.5,254.7,258.5,254.7z"/>
	<path class="st0_school-84" d="M258.5,264h-18c-0.4,0-0.7-0.2-0.7-0.6s0.2-0.7,0.6-0.7c0.1,0,0.1,0,0.2,0h18c0.4,0,0.7,0.2,0.7,0.6&#10;&#9;&#9;c0,0.4-0.2,0.7-0.6,0.7C258.6,264,258.5,264,258.5,264z"/>
	<rect x="273.6" y="246.3" class="st1_school-84" width="18" height="24.7"/>
	<path class="st0_school-84" d="M291.7,271.7h-18c-0.4,0-0.6-0.3-0.6-0.6v0v-24.7c0-0.4,0.3-0.6,0.6-0.6l0,0h18c0.4,0,0.6,0.3,0.6,0.6v0v24.8&#10;&#9;&#9;C292.3,271.4,292,271.7,291.7,271.7z M274.3,270.4H291V247h-16.7L274.3,270.4z"/>
	<path class="st0_school-84" d="M282.6,271.7c-0.4,0-0.6-0.3-0.6-0.6v-24.7c0-0.4,0.4-0.6,0.7-0.6c0.3,0,0.5,0.3,0.6,0.6v24.8&#10;&#9;&#9;C283.3,271.4,283,271.7,282.6,271.7z"/>
	<path class="st0_school-84" d="M291.7,254.7h-18c-0.4,0-0.6-0.4-0.6-0.7c0-0.3,0.3-0.5,0.6-0.6h18c0.4,0,0.6,0.4,0.6,0.7&#10;&#9;&#9;C292.2,254.4,292,254.7,291.7,254.7z"/>
	<path class="st0_school-84" d="M291.7,264h-18c-0.4,0-0.6-0.4-0.6-0.7c0-0.3,0.3-0.5,0.6-0.6h18c0.4,0,0.6,0.4,0.6,0.7&#10;&#9;&#9;C292.2,263.7,292,264,291.7,264z"/>
	<path class="st0_school-84" d="M201.8,105.3c-0.4,0-0.6-0.3-0.6-0.7V83c0-0.4,0.3-0.7,0.6-0.7c0.4,0,0.7,0.3,0.7,0.7l0,0v21.7&#10;&#9;&#9;C202.4,105.1,202.1,105.3,201.8,105.3z"/>
	<path class="st0_school-84" d="M190.9,103.1c-1.4,0-2.8-0.3-4.1-0.8c-1-0.5-2.1-1.1-3-1.8c-0.5-0.3-1-0.7-1.5-1c-5.5-3.1-12.3-3-17.6,0.5&#10;&#9;&#9;c-0.3,0.2-0.7,0.1-0.9-0.2c-0.2-0.2-0.1-0.5,0-0.8c4.1-5.2,8.6-8.2,13.2-9.1c2.3-0.3,4.7-0.4,7-0.2c2,0.2,3.9,0.1,5.9-0.1&#10;&#9;&#9;c4.6-0.6,8.7-3.2,11.3-7.1c0.2-0.3,0.6-0.4,0.9-0.2c0.3,0.2,0.4,0.6,0.2,0.9c-2.8,4.2-7.3,7-12.2,7.7c-2,0.2-4.1,0.2-6.1,0.1&#10;&#9;&#9;c-2.2-0.2-4.5-0.1-6.7,0.2c-3.5,0.7-6.9,2.7-10.1,6c5.2-2.1,11-1.6,15.8,1.2c0.5,0.3,1.1,0.7,1.6,1c0.9,0.6,1.8,1.2,2.8,1.7&#10;&#9;&#9;c4.7,2,10.2-0.5,13.6-4c0.2-0.3,0.7-0.3,0.9,0c0,0,0,0,0,0c0.2,0.3,0.2,0.7,0,0.9C199.1,100.8,195,103.1,190.9,103.1z"/>
	<polyline class="st1_school-84" points="199.6,143.9 199.6,153.6 194.3,151.4 &#9;"/>
	<path class="st0_school-84" d="M199.6,154.2c-0.1,0-0.2,0-0.2,0l-5.4-2.2c-0.3-0.1-0.5-0.5-0.5-0.8c0.1-0.3,0.5-0.5,0.8-0.5&#10;&#9;&#9;c0,0,0.1,0,0.1,0.1l4.5,1.8v-8.7c0-0.4,0.4-0.6,0.7-0.6c0.3,0,0.5,0.3,0.6,0.6v9.7c0,0.2-0.1,0.4-0.3,0.5&#10;&#9;&#9;C199.9,154.2,199.8,154.2,199.6,154.2z"/>
	<path class="st0_school-84" d="M180,235c-0.2-0.2-0.4-0.3-0.6-0.4c-0.2-0.1-0.5-0.1-0.7-0.1c-0.1,0-0.3,0-0.4,0c-0.1,0-0.3,0.1-0.4,0.1&#10;&#9;&#9;c-0.1,0.1-0.2,0.1-0.3,0.3c-0.1,0.1-0.1,0.3-0.1,0.4c0,0.2,0.1,0.4,0.3,0.6c0.2,0.1,0.5,0.3,0.7,0.3c0.3,0.1,0.6,0.2,0.9,0.3&#10;&#9;&#9;c0.3,0.1,0.6,0.2,0.9,0.4c0.3,0.2,0.5,0.4,0.7,0.7c0.2,0.3,0.3,0.7,0.3,1.1c0,0.5-0.1,0.9-0.3,1.3c-0.2,0.3-0.4,0.6-0.7,0.9&#10;&#9;&#9;c-0.3,0.2-0.6,0.4-1,0.5c-0.4,0.1-0.8,0.2-1.2,0.2c-0.5,0-1-0.1-1.5-0.2c-0.5-0.2-0.9-0.4-1.3-0.8l1.3-1.4c0.4,0.5,1,0.8,1.6,0.8&#10;&#9;&#9;c0.2,0,0.3,0,0.4-0.1c0.1,0,0.3-0.1,0.4-0.1c0.1-0.1,0.2-0.2,0.3-0.3c0.1-0.1,0.1-0.3,0.1-0.4c0-0.2-0.1-0.4-0.3-0.6&#10;&#9;&#9;c-0.2-0.2-0.5-0.3-0.7-0.4l-0.9-0.3c-0.3-0.1-0.6-0.2-0.9-0.4c-0.3-0.2-0.5-0.4-0.7-0.7c-0.2-0.3-0.3-0.7-0.3-1.1&#10;&#9;&#9;c0-0.8,0.4-1.5,1-2c0.3-0.2,0.6-0.4,1-0.5c0.4-0.1,0.8-0.2,1.2-0.2c0.5,0,0.9,0.1,1.4,0.2c0.4,0.1,0.8,0.4,1.2,0.7L180,235z"/>
	<path class="st0_school-84" d="M188,235.2c-0.2-0.2-0.4-0.4-0.7-0.5c-0.3-0.1-0.6-0.2-0.9-0.2c-0.3,0-0.6,0.1-0.9,0.2&#10;&#9;&#9;c-0.3,0.1-0.5,0.3-0.8,0.6c-0.2,0.2-0.4,0.5-0.5,0.8c-0.1,0.3-0.2,0.7-0.2,1.1c0,0.4,0.1,0.7,0.2,1.1c0.1,0.3,0.3,0.6,0.5,0.8&#10;&#9;&#9;c0.2,0.2,0.5,0.4,0.7,0.6c0.3,0.1,0.6,0.2,0.9,0.2c0.3,0,0.7-0.1,1-0.2c0.3-0.2,0.5-0.4,0.7-0.6l1.5,1.1c-0.3,0.5-0.8,0.8-1.3,1.1&#10;&#9;&#9;c-0.5,0.2-1.1,0.3-1.6,0.4c-0.6,0-1.2-0.1-1.8-0.3c-0.5-0.2-1-0.5-1.4-0.9c-0.4-0.4-0.7-0.9-0.9-1.4c-0.4-1.1-0.4-2.4,0-3.6&#10;&#9;&#9;c0.2-0.5,0.5-1,0.9-1.4c0.4-0.4,0.9-0.7,1.4-0.9c0.6-0.2,1.2-0.3,1.8-0.3c0.2,0,0.5,0,0.7,0.1c0.3,0,0.5,0.1,0.8,0.2&#10;&#9;&#9;c0.2,0.1,0.5,0.2,0.7,0.4c0.2,0.2,0.4,0.3,0.6,0.6L188,235.2z"/>
	<path class="st0_school-84" d="M190.6,233h1.8v3.1h3.5V233h1.8v8.2h-1.8v-3.6h-3.5v3.6h-1.8V233z"/>
	<path class="st0_school-84" d="M198.9,237.1c0-0.6,0.1-1.2,0.3-1.8c0.2-0.5,0.5-1,0.9-1.4c0.4-0.4,0.9-0.7,1.4-0.9c1.1-0.4,2.4-0.4,3.6,0&#10;&#9;&#9;c0.5,0.2,1,0.5,1.4,0.9c0.4,0.4,0.7,0.9,0.9,1.4c0.4,1.1,0.4,2.4,0,3.6c-0.2,0.5-0.5,1-0.9,1.4c-0.4,0.4-0.9,0.7-1.4,0.9&#10;&#9;&#9;c-1.1,0.4-2.4,0.4-3.6,0c-0.5-0.2-1-0.5-1.4-0.9c-0.4-0.4-0.7-0.9-0.9-1.4C199,238.4,198.9,237.7,198.9,237.1z M200.8,237.1&#10;&#9;&#9;c0,0.4,0.1,0.7,0.2,1.1c0.1,0.3,0.3,0.6,0.5,0.8c0.2,0.2,0.5,0.4,0.8,0.6c0.7,0.3,1.4,0.3,2.1,0c0.3-0.1,0.6-0.3,0.8-0.6&#10;&#9;&#9;c0.2-0.2,0.4-0.5,0.5-0.8c0.1-0.3,0.2-0.7,0.2-1.1c0-0.4-0.1-0.7-0.2-1.1c-0.1-0.3-0.3-0.6-0.5-0.8c-0.2-0.2-0.5-0.4-0.8-0.6&#10;&#9;&#9;c-0.7-0.3-1.4-0.3-2.1,0c-0.3,0.1-0.6,0.3-0.8,0.6c-0.2,0.2-0.4,0.5-0.5,0.8C200.9,236.4,200.8,236.8,200.8,237.1z"/>
	<path class="st0_school-84" d="M208.6,237.1c0-0.6,0.1-1.2,0.3-1.8c0.2-0.5,0.5-1,0.9-1.4c0.4-0.4,0.9-0.7,1.4-0.9c1.1-0.4,2.4-0.4,3.6,0&#10;&#9;&#9;c0.5,0.2,1,0.5,1.4,0.9c0.4,0.4,0.7,0.9,0.9,1.4c0.4,1.1,0.4,2.4,0,3.6c-0.2,0.5-0.5,1-0.9,1.4c-0.4,0.4-0.9,0.7-1.4,0.9&#10;&#9;&#9;c-1.1,0.4-2.4,0.4-3.6,0c-0.5-0.2-1-0.5-1.4-0.9c-0.4-0.4-0.7-0.9-0.9-1.4C208.7,238.4,208.6,237.7,208.6,237.1z M210.5,237.1&#10;&#9;&#9;c0,0.4,0.1,0.7,0.2,1.1c0.1,0.3,0.3,0.6,0.5,0.8c0.2,0.2,0.5,0.4,0.8,0.6c0.3,0.1,0.7,0.2,1.1,0.2c0.4,0,0.7-0.1,1.1-0.2&#10;&#9;&#9;c0.3-0.1,0.6-0.3,0.8-0.6c0.2-0.2,0.4-0.5,0.5-0.8c0.1-0.3,0.2-0.7,0.2-1.1c0-0.4-0.1-0.7-0.2-1.1c-0.1-0.3-0.3-0.6-0.5-0.8&#10;&#9;&#9;c-0.2-0.2-0.5-0.4-0.8-0.6c-0.3-0.1-0.7-0.2-1.1-0.2c-0.4,0-0.7,0.1-1.1,0.2c-0.3,0.1-0.6,0.3-0.8,0.6c-0.2,0.2-0.4,0.5-0.5,0.8&#10;&#9;&#9;C210.5,236.4,210.5,236.8,210.5,237.1z"/>
	<path class="st0_school-84" d="M218.8,233h1.8v6.6h3.4v1.7h-5.2L218.8,233z"/>
</g>
<g id="Character_school-84">
	<path class="st1_school-84" d="M375.5,173.9c-2.4,28.8-8.1,57.2-16.8,84.8c-2.4,7.7-5.1,15.8-3.5,23.7c0.1,0.7,0.4,1.4,0.9,2&#10;&#9;&#9;c1.9,1.8,4.5-1,5.6-3.3c9.2-21.2,18.4-42.6,22.4-65.4c1.9-10.9,2.3-23-4.1-32"/>
	<path class="st2_school-84" d="M357.4,285.6c-0.7,0-1.3-0.3-1.8-0.8c-0.6-0.7-1-1.5-1.1-2.4c-1.6-7.8,0.9-15.7,3.3-23.3l0.3-0.8&#10;&#9;&#9;c8.7-27.5,14.3-55.9,16.7-84.6c0-0.4,0.4-0.7,0.8-0.7s0.7,0.4,0.7,0.8l0,0c-2.4,28.8-8.1,57.3-16.8,84.9l-0.2,0.8&#10;&#9;&#9;c-2.4,7.4-4.8,15.1-3.2,22.6c0.1,0.6,0.3,1.2,0.7,1.6c0.3,0.3,0.7,0.4,1.1,0.3c1.2-0.2,2.7-1.9,3.3-3.4&#10;&#9;&#9;c8.6-19.6,18.3-41.8,22.3-65.3c2.5-14.2,1.2-24.2-3.9-31.4c-0.2-0.3-0.2-0.8,0.2-1c0.3-0.2,0.8-0.2,1,0.2l0,0&#10;&#9;&#9;c5.4,7.6,6.7,18,4.2,32.5c-4.1,23.6-13.8,45.9-22.4,65.6c-0.8,1.9-2.6,3.9-4.3,4.3C357.8,285.6,357.6,285.6,357.4,285.6z"/>
	<path class="st1_school-84" d="M384.7,369.8c1.2,2.9,2.1,5.8,2.8,8.9c0.2,1.5-6.8,3.6-6.3,3.6s1.6,12.3,5.8,13.2s15.8-8.6,17.6-11.2&#10;&#9;&#9;s-8.7-20.4-8.7-20.4L384.7,369.8z"/>
	<path class="st2_school-84" d="M387.5,396.2c-0.2,0-0.5,0-0.7-0.1c-3.6-0.7-5.1-7.9-5.9-11.7c-0.1-0.7-0.3-1.4-0.4-1.7&#10;&#9;&#9;c-0.1-0.1-0.2-0.3-0.2-0.4c-0.1-0.6,0.3-0.8,1.4-1.2c3.8-1.5,4.8-2.2,4.9-2.5c-0.6-2.9-1.5-5.7-2.6-8.5c-0.1-0.2-0.1-0.4-0.1-0.6&#10;&#9;&#9;c0-0.2,0.2-0.4,0.4-0.5l11.1-5.9c0.3-0.2,0.8-0.1,1,0.3c0,0,0,0,0,0c2.5,4.3,10.6,18.5,8.7,21.1C403.5,387,392.6,396.2,387.5,396.2&#10;&#9;&#9;z M382,382.6c0.1,0.4,0.2,0.9,0.3,1.5c0.6,3,2.1,10,4.7,10.6c3.8,0.8,15.1-8.4,16.8-10.9c0.9-1.3-3.6-10.7-8.4-19l-9.9,5.2&#10;&#9;&#9;c1.1,2.8,1.9,5.6,2.5,8.5c0.1,1.4-1.9,2.5-5.8,4L382,382.6z"/>
	<path class="st2_school-84" d="M391.8,391.5c-4-3-7.3-6.7-9.9-10.9c0,0-10.1,5.4-12,6.6c-8,5.2-12.7,12.6-10.1,13.2s26.2-1.3,32.2-2.7&#10;&#9;&#9;S391.8,391.5,391.8,391.5z"/>
	<path class="st2_school-84" d="M361.6,401.2c-0.7,0-1.4,0-2.1-0.1c-0.6-0.1-1.1-0.6-1.2-1.3c-0.5-2.5,4.2-8.7,11.1-13.2&#10;&#9;&#9;c1.9-1.2,11.7-6.4,12.1-6.7c0.3-0.2,0.7-0.1,1,0.2c2.5,4.2,5.8,7.8,9.7,10.7l0,0c0.4,0.3,3.4,2.9,2.9,5.1c-0.3,1.1-1.3,1.9-3.1,2.4&#10;&#9;&#9;C387.1,399.6,368.3,401.2,361.6,401.2z M381.6,381.5c-2.2,1.2-9.8,5.3-11.4,6.3c-6.9,4.5-10.8,10.3-10.5,11.8c0,0.1,0,0.1,0.1,0.1&#10;&#9;&#9;c2.4,0.5,25.9-1.3,31.8-2.7c0.8-0.2,1.9-0.6,2-1.3c0.3-1.1-1.5-3-2.4-3.7C387.5,389.2,384.2,385.6,381.6,381.5L381.6,381.5z"/>
	<path class="st1_school-84" d="M372.4,107.3c1.4-2.5,3.5-4.7,5.9-6.2c4.7-2.8,10.6-2.5,15,0.6c1.2-1.3,3-2,4.8-1.9&#10;&#9;&#9;c6.1,0.3,10.4,5.5,13.2,10.4c3.2,5.6,4.2,12.1,7,17.9c0.5,1,9,11.9,10.7,9.7c-2.4,3-4.8,5.9-7.4,8.7c-2.2,2.7-4.8,4.9-7.8,6.7&#10;&#9;&#9;c-3.4,1.8-7.4,2.4-11.2,2.7c-13.5,0.9-27-1.3-39.4-6.6c0.8-9.2,2.3-18.4,4.5-27.3C369.1,116.8,370,111.6,372.4,107.3z"/>
	<path class="st2_school-84" d="M396.7,156.8c-11.6,0-23-2.3-33.7-6.8c-0.3-0.1-0.5-0.4-0.4-0.7c0.8-9.3,2.3-18.4,4.5-27.4&#10;&#9;&#9;c0.2-0.9,0.5-1.9,0.7-2.8c1-4.3,2-8.4,4-12l0,0c1.5-2.6,3.6-4.9,6.2-6.4c4.7-2.8,10.6-2.7,15.2,0.3c1.4-1.2,3.1-1.8,4.9-1.7&#10;&#9;&#9;c5.2,0.2,9.8,3.8,13.8,10.7c1.7,3.2,3.1,6.6,4.1,10.1c0.8,2.7,1.8,5.3,2.9,7.8c0.7,1.5,8.2,10.3,9.5,9.6c0.2-0.3,0.7-0.4,1-0.1&#10;&#9;&#9;c0,0,0,0,0,0c0.3,0.2,0.4,0.7,0.1,1c0,0,0,0,0,0c-2.4,3-4.8,5.9-7.4,8.7c-2.2,2.7-5,5-8,6.8c-3.7,2-7.9,2.5-11.5,2.8&#10;&#9;&#9;C400.7,156.7,398.7,156.8,396.7,156.8z M364,148.8c12.2,5.1,25.4,7.2,38.6,6.3c3.5-0.2,7.5-0.7,10.9-2.6c2.9-1.7,5.4-3.9,7.6-6.5&#10;&#9;&#9;c2.2-2.4,4.3-4.9,6.3-7.4c-3.4-1.4-9.5-9.5-9.8-10.2c-1.2-2.6-2.2-5.3-3-8c-1-3.4-2.3-6.7-4-9.8c-3.7-6.4-7.9-9.8-12.6-10&#10;&#9;&#9;c-1.6-0.2-3.1,0.4-4.2,1.6c-0.2,0.3-0.7,0.4-1,0.1c0,0,0,0,0,0c-4.2-3-9.8-3.2-14.2-0.6c-2.4,1.5-4.3,3.5-5.7,6l0,0&#10;&#9;&#9;c-2,3.4-2.9,7.4-3.9,11.7c-0.2,0.9-0.4,1.9-0.7,2.8C366.2,131,364.8,139.9,364,148.8z"/>
	<path class="st1_school-84" d="M400.8,372.4c0,0,1.1,11.9,0,13.5s-7.1,3.6-7.1,3.6s3.2,6.7,9.5,5.9s13.9-5.4,13.9-5.4l1.3-20.9L400.8,372.4z"/>
	<path class="st2_school-84" d="M402.1,396.2c-5.9,0-8.9-6.1-9.1-6.4c-0.1-0.2-0.1-0.4,0-0.6c0.1-0.2,0.2-0.3,0.4-0.4c2.2-0.8,6-2.4,6.8-3.4&#10;&#9;&#9;c0.6-0.8,0.4-7.4-0.1-13c0-0.4,0.2-0.7,0.6-0.8l17.6-3.2c0.2,0,0.4,0,0.6,0.2c0.2,0.1,0.3,0.4,0.2,0.6l-1.3,20.9&#10;&#9;&#9;c0,0.2-0.2,0.5-0.4,0.6c-0.3,0.2-7.8,4.6-14.1,5.4C402.9,396.1,402.5,396.2,402.1,396.2z M394.7,389.9c1,1.6,3.8,5.4,8.4,4.8&#10;&#9;&#9;c5.3-0.7,11.8-4.2,13.3-5l1.2-19.6l-16,3c0.3,3.4,0.9,11.8-0.2,13.3C400.4,387.6,396.5,389.2,394.7,389.9L394.7,389.9z"/>
	<path class="st2_school-84" d="M397.9,392.1l-5-7c0,0-24,12.6-23.1,16.9s50.3,1,50.3,0.6s-1-14.1-1-14.1S403.5,395.4,397.9,392.1z"/>
	<path class="st2_school-84" d="M386.8,404.8c-17,0-17.4-1.8-17.6-2.7c-1-4.4,17.7-14.6,23.4-17.7c0.3-0.2,0.7-0.1,0.9,0.2l4.9,6.9&#10;&#9;&#9;c4.5,2.3,16.3-2,20.5-3.9c0.2-0.1,0.5-0.1,0.7,0c0.2,0.1,0.3,0.3,0.4,0.6c0.2,2.3,1,13.8,1,14.2c0,0.7-0.6,0.8-1.5,0.9&#10;&#9;&#9;c-3.2,0.4-15.3,1.2-26.9,1.4C390.4,404.8,388.5,404.8,386.8,404.8z M392.7,386.1c-11.1,5.9-22.7,13.5-22.1,15.8&#10;&#9;&#9;c1.6,2.8,42.4,1.3,48.9,0.2c-0.1-1.9-0.5-7.9-0.9-12.5c-3.5,1.5-15.9,6.2-21,3.3c-0.1-0.1-0.2-0.1-0.2-0.2L392.7,386.1z"/>
	<path class="st2_school-84" d="M423.5,160.6c0,0,25.2,24,27.2,30.8s-3.4,5.7-3.4,5.7s15,28.6,5.8,45.1s-32.9,5.7-33.9,2.5s-0.2-65.9,1.2-73.9&#10;&#9;&#9;S423.5,160.6,423.5,160.6z"/>
	<path class="st2_school-84" d="M437.1,251.7c-1,0-2-0.1-3-0.2c-7.7-0.8-14.9-4.6-15.5-6.7c-1.1-3.8-0.1-66.9,1.2-74.3&#10;&#9;&#9;c1.5-8.1,3.1-10.3,3.2-10.4c0.1-0.2,0.3-0.3,0.5-0.3c0.2,0,0.4,0.1,0.6,0.2c1,1,25.4,24.2,27.4,31.1c0.7,2.6,0.6,4.4-0.5,5.6&#10;&#9;&#9;c-0.6,0.7-1.5,1-2.4,1.1c2.4,5,4.3,10.1,5.9,15.4c3.5,12.4,3.3,22.3-0.6,29.2C449.6,249.8,442.9,251.7,437.1,251.7z M423.7,161.7&#10;&#9;&#9;c-1.2,2.9-2.1,5.9-2.5,9.1c-1.5,8.2-2,70.9-1.2,73.6c0.3,1.1,6.4,4.9,14.3,5.7c5.9,0.6,13.8-0.3,18.3-8.4&#10;&#9;&#9;c8.9-15.9-5.7-44.1-5.8-44.4c-0.1-0.2-0.1-0.5,0.1-0.8c0.2-0.2,0.4-0.3,0.7-0.3c0.9,0.2,1.7-0.1,2.4-0.6c0.7-0.7,0.7-2.2,0.1-4.2&#10;&#9;&#9;C448.3,185.6,427.7,165.6,423.7,161.7L423.7,161.7z"/>
	<path class="st2_school-84" d="M374.8,218.5c0,0-24.4,84.9-24.4,96.7s33.4,58,33.4,58l15.7-6.2c0,0-19.2-45.1-17.7-48.5s14.5-38.9,14.5-38.9&#10;&#9;&#9;s2.1,45.6,3.2,52.4s0,42.5,0,42.5s17.6,5.1,22.4,0c0,0,7.6-129.3,2.6-144.5s-4.8-11.4-4.8-11.4L374.8,218.5z"/>
	<path class="st2_school-84" d="M413.9,377.5c-4.9-0.2-9.8-0.9-14.6-2.3c-0.3-0.1-0.5-0.4-0.5-0.7c0-0.1,0.1-2.7,0.2-6.6l-14.9,5.9&#10;&#9;&#9;c-0.3,0.1-0.7,0-0.9-0.2c-1.4-1.9-33.6-46.6-33.6-58.5s23.5-93.4,24.5-96.9c0.1-0.3,0.4-0.5,0.7-0.5l0,0l44.4,0.2&#10;&#9;&#9;c0.1-0.2,0.3-0.4,0.6-0.4c0.8-0.1,1.3-0.2,5.5,12.3c5,15.1-2.2,139.5-2.6,144.8c0,0.2-0.1,0.3-0.2,0.5&#10;&#9;&#9;C420.7,376.9,417.4,377.5,413.9,377.5z M400.2,374c5.1,1.4,17.2,3.7,21,0.2c0.4-6.7,7.4-129.4,2.6-144c-1.1-3.7-2.5-7.3-4-10.9&#10;&#9;&#9;h-0.1l-44.4-0.2c-2.1,7.2-24.2,84.9-24.2,96c0,10.8,29.5,52.3,33,57.2l14.5-5.7c-3.8-8.9-18.9-45-17.4-48.3s14.3-38.5,14.5-38.8&#10;&#9;&#9;c0.1-0.3,0.4-0.5,0.8-0.5c0.3,0.1,0.6,0.3,0.6,0.7c0,0.5,2.1,45.6,3.2,52.3C401.3,338.3,400.4,369.3,400.2,374z M395.7,283.3&#10;&#9;&#9;c-3.3,9-12,32.8-13.2,35.5c-0.8,2.4,9.3,28,16.6,45.3c0.2-11.1,0.5-27.6-0.3-31.9C397.8,326.5,396.2,294.2,395.7,283.3L395.7,283.3&#10;&#9;&#9;z"/>
	<path class="st2_school-84" d="M377,161.6c-2,3.4-3.4,7-4.2,10.9c-0.9,3.3-1.2,6.6-0.9,10c0.7,6.4,4.3,12,8.4,16.6c-1-4.5-1.6-9-1.8-13.5&#10;&#9;&#9;c-0.2-6.3,1-12.5,3.4-18.3c1.2-2.9,2.7-5.6,4.5-8.1c0.8-1.2,2.2-2.2,1-3.5c-0.8-0.9-2.1-1.3-3.3-1&#10;&#9;&#9;C381.2,155.4,378.6,159.1,377,161.6z"/>
	<path class="st2_school-84" d="M380.3,199.7c-0.2,0-0.4-0.1-0.5-0.2c-5.2-5.8-8-11.4-8.6-17c-0.3-3.4,0-6.9,0.9-10.2&#10;&#9;&#9;c0.8-3.9,2.3-7.6,4.3-11.1l0,0c2.6-4.1,5-6.6,7.4-7.2c1.4-0.4,3,0.1,4,1.1c1.5,1.5,0.3,2.9-0.4,3.8c-0.2,0.2-0.3,0.4-0.5,0.6&#10;&#9;&#9;c-1.7,2.5-3.2,5.1-4.4,7.9c-2.4,5.7-3.5,11.8-3.3,18c0.3,4.5,0.9,9,1.8,13.4c0.1,0.4-0.2,0.8-0.6,0.8&#10;&#9;&#9;C380.4,199.7,380.3,199.7,380.3,199.7L380.3,199.7z M377.7,161.9c-2,3.3-3.4,6.9-4.2,10.6c-0.8,3.2-1.1,6.5-0.9,9.7&#10;&#9;&#9;c0.5,4.6,2.6,9.3,6.5,14.1c-0.7-3.6-1.2-7.3-1.3-11c-0.2-6.4,1-12.7,3.4-18.6c1.2-2.9,2.7-5.7,4.5-8.2c0.2-0.2,0.4-0.5,0.5-0.7&#10;&#9;&#9;c0.9-1.1,1-1.4,0.5-1.8c-0.7-0.7-1.6-1-2.6-0.8C382.2,155.9,380,158.1,377.7,161.9L377.7,161.9z"/>
	<path class="st3_school-84 targetColor" d="M381.3,160.1c-0.7,0.8-4.8,4.6-6.5,16.9s4.4,25.7,0,41.5l41.6,2.3c0,0,12.7-51.3,6.3-62.1&#10;&#9;&#9;S389,151.3,381.3,160.1z" style="fill: rgb(123, 23, 152);"/>
	<path class="st2_school-84" d="M415.1,203.3c0,0-18.7-7.6-17.1-24.5c1.7-18.3,9.6-22.8,16.3-26.4c4,1.5,4.5,2.5,4.5,2.5s-13.9,4.2-14.2,14.6&#10;&#9;&#9;S401.9,194.1,415.1,203.3z"/>
	<path class="st2_school-84" d="M415.1,204c-0.1,0-0.2,0-0.3,0c-0.2-0.1-19.2-8-17.5-25.2c1.8-18.9,10.1-23.4,16.7-27c0.2-0.1,0.4-0.1,0.6,0&#10;&#9;&#9;c3.9,1.4,4.7,2.6,4.9,2.9c0.1,0.2,0.1,0.4,0,0.6c-0.1,0.2-0.3,0.3-0.5,0.4c-0.1,0-13.5,4.1-13.7,13.9c0,1.2-0.1,2.4-0.1,3.7&#10;&#9;&#9;c-0.5,9.6-1,21.5,10.4,29.5c0.3,0.2,0.4,0.6,0.2,0.9C415.6,203.9,415.4,204,415.1,204z M414.4,153.2c-6.3,3.4-14,7.8-15.7,25.7&#10;&#9;&#9;c-1,10.1,5.8,16.9,10.9,20.5c-6.8-8-6.3-17.9-5.9-26.2c0.1-1.3,0.1-2.5,0.1-3.7c0.2-9.1,10-13.5,13.5-14.8&#10;&#9;&#9;C416.4,154.1,415.4,153.6,414.4,153.2L414.4,153.2z"/>
	<path class="st1_school-84" d="M405.7,187.7c0.7,1.1,0.5,22.5,0,23.4c-3.2,5.6-6.2,11.2-9.4,16.7c-2.3,3.9-4.5,7.9-6.9,11.8&#10;&#9;&#9;c-4.2,6.8-11.3,11-16.5,17.1c2.3,0.6,4.8,0.2,6.8-1l-6.7,9.7c-1.3,1.9-2.7,4.2-2,6.4c0.6,1.9,10-3.7,11-4.8&#10;&#9;&#9;c4.2-4.1,6.5-10.2,10.5-14.6c3.3-3.6,7-6.9,10.3-10.7c5.8-6.8,13.8-14.6,17-23.1c2.9-7.6,5.8-35.8,5.8-35.8"/>
	<path class="st2_school-84" d="M371.6,273c-0.2,0-0.3,0-0.5,0c-0.4-0.1-0.8-0.4-0.9-0.9c-0.8-2.5,0.7-5,2.1-7l5.3-7.7c-1.6,0.5-3.4,0.5-5,0.1&#10;&#9;&#9;c-0.2-0.1-0.4-0.2-0.5-0.5c-0.1-0.2,0-0.5,0.1-0.7c2.2-2.5,4.6-4.8,7.1-7c3.5-3.2,6.9-6.1,9.3-10s4.6-7.8,6.9-11.8&#10;&#9;&#9;c1.6-2.8,3.1-5.5,4.7-8.3s3.1-5.6,4.8-8.4c0.4-1.3,0.6-21,0-22.7c-0.2-0.3-0.2-0.7,0.2-1c0,0,0,0,0.1,0c0.3-0.2,0.8-0.1,1,0.2&#10;&#9;&#9;c1,1.5,0.5,23.3,0,24.2c-1.6,2.8-3.2,5.6-4.7,8.4s-3.1,5.6-4.7,8.3c-2.3,4-4.5,7.9-6.9,11.8c-2.5,4.1-6.1,7.3-9.6,10.4&#10;&#9;&#9;c-2.1,1.8-4.2,3.8-6.1,5.8c1.7,0.2,3.5-0.2,5-1.1c0.3-0.2,0.7-0.1,0.9,0.1c0.2,0.3,0.3,0.6,0.1,0.9l-6.7,9.8&#10;&#9;&#9;c-1.2,1.8-2.5,3.8-2,5.7c1.4,0.2,8.7-3.8,9.9-4.9c2.1-2.3,4-4.8,5.5-7.6c1.5-2.5,3.1-4.8,5-7c1.5-1.6,3-3.2,4.6-4.7&#10;&#9;&#9;c1.9-1.9,3.9-3.9,5.7-6c1.2-1.4,2.4-2.8,3.7-4.2c5-5.6,10.6-12,13.2-18.7c2.8-7.4,5.7-35.3,5.8-35.6c0.1-0.4,0.4-0.7,0.8-0.6&#10;&#9;&#9;c0.4,0,0.7,0.4,0.6,0.8c-0.1,1.2-3,28.4-5.9,36c-2.6,6.9-8.4,13.4-13.5,19.1c-1.3,1.4-2.5,2.8-3.7,4.2c-1.8,2.2-3.8,4.2-5.8,6.1&#10;&#9;&#9;c-1.5,1.5-3.1,3.1-4.5,4.7c-1.8,2.1-3.4,4.4-4.8,6.8c-1.6,2.8-3.5,5.4-5.7,7.8C381.6,268.5,374.5,273,371.6,273z"/>
	<path class="st3_school-84 targetColor" d="M422.7,158.7c0,0-12.3-4.2-17.1,7.9s-3.5,25.8-3.5,25.8l28.1,1.4C430.1,193.8,434.3,163.2,422.7,158.7z" style="fill: rgb(123, 23, 152);"/>
	<path class="st1_school-84" d="M386.2,145.1l0.2,12.3c0,0,0.9,6.7,9,4.6s9.2-7.9,9.2-7.9l-0.4-23.1c0,0-6.6-3.9-8-18.3c0,0-5.5,6.6-17.7,5.2&#10;&#9;&#9;c0,0-2.3,12.3-1.4,18.7C378,142.7,386.1,145,386.2,145.1z"/>
	<path class="st2_school-84" d="M392.5,163.1c-1.4,0-2.8-0.4-4-1.1c-1.5-1.1-2.5-2.7-2.8-4.5l-0.2-11.9c-3.2-1.2-8.4-3.8-9.1-8.9&#10;&#9;&#9;c-0.9-6.4,1.3-18.4,1.4-18.9c0.1-0.4,0.4-0.6,0.8-0.6c11.6,1.3,17-4.9,17.1-4.9c0.2-0.2,0.5-0.3,0.7-0.2c0.3,0.1,0.5,0.3,0.5,0.6&#10;&#9;&#9;c1.3,13.8,7.6,17.8,7.7,17.8c0.2,0.1,0.3,0.3,0.3,0.6l0.4,23.1c0,0.4-1.2,6.5-9.7,8.6C394.6,163,393.6,163.1,392.5,163.1z&#10;&#9;&#9; M387.1,157.4c0.3,1.4,1.1,2.6,2.2,3.4c1.5,1,3.5,1.1,6,0.5c7.6-1.9,8.6-7.1,8.6-7.4l-0.4-22.6c-1.4-1-6.4-5.4-7.9-17.2&#10;&#9;&#9;c-2.1,1.8-7.5,5.3-16.6,4.4c-0.4,2.6-2,12.5-1.3,17.8c0.6,4.5,5.5,6.9,8.4,7.9c0.1,0,0.3,0.1,0.4,0.2c0.2,0.1,0.3,0.3,0.3,0.5&#10;&#9;&#9;L387.1,157.4L387.1,157.4z M387.1,157.4L387.1,157.4z"/>
	<path class="st1_school-84" d="M399.4,130.7c0.3-1.1,0.9-2.1,1.8-2.9c0.9-0.7,1.8-1.2,2.9-1.5c0.5-0.2,1.1-0.3,1.7-0.3&#10;&#9;&#9;c0.4,0.1,0.8,0.2,1.2,0.4c0.9,0.4,1.6,1.2,2,2.1c0.2,0.8,0.3,1.6,0.1,2.3c-0.1,0.9-0.3,1.7-0.6,2.5c-1.4,3.3-5.1,4.9-8.4,3.5&#10;&#9;&#9;c0,0-0.1,0-0.1,0"/>
	<path class="st2_school-84" d="M402.5,138c-1,0-1.9-0.2-2.8-0.6c-0.4-0.1-0.6-0.5-0.4-0.9c0.1-0.4,0.5-0.6,0.9-0.4c0,0,0.1,0,0.1,0&#10;&#9;&#9;c2.9,1.3,6.3-0.1,7.6-3c0,0,0,0,0-0.1c0.3-0.7,0.5-1.5,0.5-2.3c0.1-0.7,0.1-1.4-0.1-2c-0.3-0.7-0.9-1.3-1.7-1.7&#10;&#9;&#9;c-0.3-0.2-0.6-0.3-0.9-0.3c-0.5,0-1,0.1-1.4,0.3c-0.9,0.3-1.8,0.8-2.6,1.4c-0.8,0.6-1.3,1.5-1.5,2.5c-0.1,0.4-0.5,0.6-0.8,0.5&#10;&#9;&#9;c0,0,0,0,0,0c-0.4-0.1-0.6-0.5-0.5-0.8c0.3-1.3,1-2.4,2-3.3c0.9-0.7,2-1.2,3.1-1.6c0.6-0.3,1.3-0.4,2-0.4c0.5,0.1,1,0.2,1.4,0.5&#10;&#9;&#9;c1,0.5,1.9,1.4,2.3,2.4c0.3,0.9,0.3,1.8,0.2,2.7c-0.1,0.9-0.3,1.8-0.6,2.7c-0.7,1.8-2.2,3.2-3.9,3.9&#10;&#9;&#9;C404.3,137.8,403.4,138,402.5,138z"/>
	<path class="st1_school-84" d="M388.9,125.6c0,0-4.4,6.3-3.5,7.4s3.9,0.5,3.9,0.5"/>
	<path class="st2_school-84" d="M387.6,134.4c-1,0.1-1.9-0.2-2.6-0.9c-1.1-1.3,1.2-5.2,3.4-8.3c0.2-0.3,0.7-0.4,1-0.2c0,0,0,0,0,0&#10;&#9;&#9;c0.3,0.2,0.4,0.6,0.2,1c0,0,0,0,0,0c-2,2.9-3.6,6-3.5,6.6c0.5,0.5,2.1,0.4,3.1,0.2c0.4-0.1,0.8,0.1,0.8,0.5c0,0,0,0,0,0&#10;&#9;&#9;c0.1,0.4-0.2,0.8-0.5,0.8C388.9,134.3,388.2,134.4,387.6,134.4z"/>
	
		<ellipse transform="matrix(6.313894e-02 -0.998 0.998 6.313894e-02 245.0371 510.5379)" class="st2_school-84" cx="394.4" cy="124.8" rx="1.5" ry="1.1"/>
	
		<ellipse transform="matrix(7.010463e-02 -0.9975 0.9975 7.010463e-02 232.5717 499.7669)" class="st2_school-84" cx="384.3" cy="125.1" rx="1.5" ry="1.1"/>
	<path class="st2_school-84" d="M389.2,140.1c-2.6-0.1-5-0.9-7.2-2.3c-0.3-0.2-0.4-0.6-0.2-1s0.6-0.4,1-0.2c0,0,4.8,3,8.6,1.7&#10;&#9;&#9;c1.9-0.7,3.3-2.3,4.2-4.9c0.1-0.4,0.5-0.6,0.9-0.4c0,0,0,0,0,0c0.4,0.1,0.6,0.5,0.4,0.9c-1,3-2.7,5-5,5.8&#10;&#9;&#9;C391,140,390.1,140.2,389.2,140.1z"/>
	<path class="st2_school-84" d="M386.2,145.1c0,0,5.9,1.5,10.5-1.1c0,0-3.1,11.6-10.3,10.6L386.2,145.1z"/>
	<path class="st2_school-84" d="M387.3,155.3c-0.4,0-0.7,0-1.1-0.1c-0.3-0.1-0.6-0.3-0.6-0.7l-0.1-9.4c0-0.2,0.1-0.4,0.3-0.6&#10;&#9;&#9;c0.2-0.1,0.4-0.2,0.6-0.1c0.1,0,5.7,1.4,10-1.1c0.2-0.2,0.5-0.2,0.8,0c0.2,0.2,0.3,0.5,0.2,0.7&#10;&#9;&#9;C397.2,144.6,394.3,155.3,387.3,155.3z M387,153.9h0.2c4.5,0,7.2-5.8,8.2-8.6c-2.8,1-5.7,1.2-8.6,0.7L387,153.9z"/>
	<path class="st1_school-84" d="M447.3,197.7c-0.2,0-0.4-0.1-0.6-0.3c-0.1-0.1-9.3-13.5-15.1-19c-0.3-0.3-0.3-0.7,0-1c0,0,0,0,0,0&#10;&#9;&#9;c0.3-0.3,0.7-0.3,1,0c5.9,5.6,14.9,18.7,15.3,19.2c0.2,0.3,0.2,0.8-0.2,1c0,0,0,0,0,0C447.6,197.7,447.5,197.7,447.3,197.7z"/>
	<path class="st1_school-84" d="M426.2,245c-0.3,0-0.6-0.2-0.7-0.5c-0.1-0.6-0.2-1.2-0.1-1.7c-0.1-4.1-0.4-15.1-4.8-21.5&#10;&#9;&#9;c-0.2-0.3-0.2-0.8,0.2-1c0,0,0,0,0,0c0.3-0.2,0.7-0.2,1,0.1c0,0,0,0,0,0.1c4.6,6.8,4.9,18,5,22.2c0,0.6,0,1.2,0.1,1.4&#10;&#9;&#9;c0.1,0.3-0.1,0.7-0.4,0.9c0,0,0,0,0,0C426.4,245,426.3,245,426.2,245z"/>
	<path class="st1_school-84" d="M396.2,280.4c-0.3,0-0.6-0.2-0.7-0.6l-3.3-19.2c-0.1-0.4,0.2-0.7,0.6-0.8c0,0,0,0,0,0c0.4-0.1,0.7,0.2,0.8,0.6&#10;&#9;&#9;c0,0,0,0,0,0l3.3,19.2c0.1,0.4-0.2,0.7-0.6,0.8c0,0,0,0,0,0L396.2,280.4z"/>
	<path class="st1_school-84" d="M369.8,402.7c-0.1,0-0.1,0-0.2,0c-0.4-0.1-0.6-0.5-0.5-0.8c0,0,0,0,0,0c1.5-5.4,19.5-16.8,20.3-17.2&#10;&#9;&#9;c0.3-0.2,0.8-0.1,1,0.2c0.2,0.3,0.1,0.8-0.2,1c-5.1,3.2-18.6,12.4-19.7,16.5C370.4,402.5,370.1,402.7,369.8,402.7z"/>
</g>
<g id="Road_school-84">
	<path class="st0_school-84" d="M469,412.8c-0.1,0-0.2,0-0.3-0.1L251.4,305.3c-0.3-0.2-0.4-0.5-0.3-0.9c0.2-0.3,0.5-0.4,0.9-0.3c0,0,0,0,0,0&#10;&#9;&#9;l217.2,107.4c0.3,0.2,0.5,0.5,0.3,0.9C469.4,412.6,469.2,412.7,469,412.8z"/>
	<path class="st0_school-84" d="M214.2,417.7c-0.2,0-0.5-0.1-0.6-0.4l-58-112.3c-0.2-0.3,0-0.7,0.3-0.9c0.3-0.2,0.7,0,0.9,0.3l58,112.3&#10;&#9;&#9;c0.2,0.3,0,0.7-0.3,0.9C214.4,417.7,214.3,417.7,214.2,417.7z"/>
</g>
<g id="Grass_school-84">
	<path class="st0_school-84" d="M149.7,329.2h-0.1c-0.3-0.1-0.6-0.4-0.5-0.8c0,0,0,0,0,0l1.5-6.9c0.1-0.3,0.4-0.6,0.8-0.5&#10;&#9;&#9;c0.3,0.1,0.6,0.4,0.5,0.8l-1.5,6.9C150.3,329,150,329.2,149.7,329.2z"/>
	<path class="st0_school-84" d="M145.8,329.8c-0.3,0-0.6-0.2-0.6-0.5l-0.8-5.3c-0.1-0.4,0.2-0.7,0.5-0.7c0.4-0.1,0.7,0.2,0.7,0.5l0.8,5.3&#10;&#9;&#9;c0,0.4-0.2,0.7-0.5,0.7L145.8,329.8z"/>
	<path class="st0_school-84" d="M54.9,345.1c-0.4,0-0.7-0.3-0.9-0.6l-1.9-4.1c-0.2-0.3-0.1-0.7,0.2-0.9c0.3-0.2,0.7-0.1,0.9,0.2&#10;&#9;&#9;c0,0,0,0.1,0.1,0.1l1.8,3.8c0.1,0,0.1,0,0.2,0.1c0.3,0.2,0.4,0.5,0.4,0.8C55.5,344.8,55.3,345.1,54.9,345.1L54.9,345.1z"/>
	<path class="st0_school-84" d="M58.3,343.9c-0.3,0-0.5-0.1-0.6-0.4c-0.7-1.5-0.7-3.1-0.2-4.7c0.1-0.3,0.5-0.5,0.8-0.4c0,0,0,0,0,0&#10;&#9;&#9;c0.3,0.1,0.5,0.5,0.4,0.8c-0.4,1.2-0.3,2.6,0.2,3.7c0.1,0.3,0,0.7-0.3,0.9C58.4,343.8,58.4,343.9,58.3,343.9z"/>
	<path class="st0_school-84" d="M62.8,344.6c-0.3,0-0.6-0.2-0.6-0.5c-0.3-1.8-0.3-3.6,0-5.4c0.1-0.3,0.4-0.6,0.8-0.5c0.3,0.1,0.6,0.4,0.5,0.8&#10;&#9;&#9;c0,0,0,0,0,0c-0.3,1.6-0.3,3.3,0,4.9c0.1,0.3-0.2,0.7-0.5,0.8L62.8,344.6z"/>
	<path class="st0_school-84" d="M96,322.5c-0.3,0-0.5-0.2-0.6-0.5c-0.4-1.3-1-2.5-1.8-3.6c-0.3-0.2-0.3-0.6-0.1-0.9c0.2-0.3,0.6-0.3,0.9-0.1&#10;&#9;&#9;c0.1,0.1,0.1,0.1,0.2,0.2c0.9,1.2,1.5,2.6,2,4c0.1,0.3-0.1,0.7-0.4,0.8c0,0,0,0,0,0L96,322.5z"/>
	<path class="st0_school-84" d="M99.3,321.7c-0.3,0-0.6-0.2-0.6-0.5c-0.3-1.2-0.2-2.5,0.2-3.7c0.1-0.3,0.5-0.5,0.8-0.4c0,0,0,0,0,0&#10;&#9;&#9;c0.3,0.1,0.5,0.5,0.4,0.8c-0.3,1-0.4,2.1-0.2,3.1c0.1,0.3-0.1,0.7-0.5,0.8c0,0,0,0,0,0L99.3,321.7z"/>
	<path class="st0_school-84" d="M104.5,321.5h-0.1c-0.3-0.1-0.6-0.4-0.5-0.8c0,0,0,0,0,0c0.4-1.9,1-3.7,1.8-5.5c0.2-0.3,0.5-0.5,0.9-0.3&#10;&#9;&#9;c0.3,0.2,0.5,0.5,0.3,0.9l0,0c-0.8,1.6-1.4,3.4-1.8,5.2C105,321.3,104.8,321.5,104.5,321.5z"/>
	<path class="st0_school-84" d="M33.2,317.4c-0.2,0-0.4-0.1-0.5-0.3l-2.1-3.6c-0.2-0.3-0.1-0.7,0.2-0.9c0,0,0,0,0,0c0.3-0.2,0.7-0.1,0.9,0.2&#10;&#9;&#9;l2.1,3.6c0.2,0.3,0.1,0.7-0.2,0.9c0,0,0,0,0,0C33.4,317.4,33.3,317.4,33.2,317.4z"/>
	<path class="st0_school-84" d="M35.9,316c-0.3,0-0.5-0.2-0.6-0.5c-0.4-1.5-0.6-3-0.6-4.5c0-0.4,0.3-0.6,0.6-0.6l0,0c0.4,0,0.6,0.3,0.6,0.6&#10;&#9;&#9;l0,0c0,1.4,0.2,2.8,0.6,4.1c0.1,0.3-0.1,0.7-0.4,0.8c0,0,0,0,0,0C36,316,35.9,316,35.9,316z"/>
	<path class="st0_school-84" d="M39.5,316.4c-0.3,0-0.5-0.2-0.6-0.4c-0.5-1.5-0.4-3.1,0.3-4.5c0.2-0.3,0.5-0.4,0.9-0.3c0,0,0,0,0,0&#10;&#9;&#9;c0.3,0.2,0.4,0.5,0.3,0.8c0,0,0,0,0,0c-0.5,1.1-0.6,2.3-0.3,3.5c0.1,0.3-0.1,0.7-0.4,0.8c0,0,0,0,0,0L39.5,316.4z"/>
	<path class="st0_school-84" d="M445.5,355.8c-0.2,0-0.3-0.1-0.5-0.2c-0.3-0.3-0.5-0.7-0.4-1.1c0.1-1.2-0.2-2.4-0.8-3.4&#10;&#9;&#9;c-0.2-0.3-0.1-0.7,0.2-0.9c0,0,0,0,0,0c0.3-0.2,0.7-0.1,0.9,0.2c0.7,1.1,1.1,2.5,1,3.9l0,0c0.4,0.2,0.5,0.7,0.3,1.1&#10;&#9;&#9;c-0.1,0.2-0.2,0.3-0.4,0.3C445.7,355.7,445.6,355.7,445.5,355.8z"/>
	<path class="st0_school-84" d="M448.9,355.4c-0.4,0-0.6-0.3-0.6-0.6c0-1.7,0.3-3.4,1-5c0.1-0.3,0.5-0.5,0.8-0.3c0.3,0.1,0.5,0.5,0.3,0.8l0,0&#10;&#9;&#9;c-0.6,1.4-0.9,2.9-0.9,4.5C449.5,355.1,449.2,355.4,448.9,355.4C448.9,355.4,448.9,355.4,448.9,355.4L448.9,355.4z"/>
	<path class="st0_school-84" d="M453.5,356.8c-0.3,0-0.6-0.2-0.6-0.5c-0.3-1.6,0.2-3.2,1.2-4.4c0.2-0.3,0.6-0.3,0.9-0.1c0,0,0,0,0,0&#10;&#9;&#9;c0.3,0.2,0.3,0.6,0.1,0.9c-0.8,0.9-1.1,2.1-0.9,3.3c0.1,0.4-0.2,0.7-0.5,0.8L453.5,356.8z"/>
	<path class="st0_school-84" d="M328.5,323.9c-0.3,0-0.6-0.3-0.6-0.6c-0.1-1.5-0.4-3-0.9-4.4c-0.1-0.3,0-0.7,0.4-0.8s0.7,0,0.8,0.4l0,0&#10;&#9;&#9;c0.6,1.5,0.9,3.1,1,4.7C329.1,323.5,328.8,323.8,328.5,323.9L328.5,323.9z"/>
	<path class="st0_school-84" d="M331.5,324.3L331.5,324.3c-0.4,0-0.6-0.3-0.6-0.6c0-1.8,0.3-3.6,1-5.2c0.1-0.3,0.5-0.5,0.8-0.4&#10;&#9;&#9;c0.3,0.1,0.5,0.5,0.4,0.8c-0.6,1.5-0.9,3.1-0.9,4.7C332.1,324,331.8,324.3,331.5,324.3z"/>
	<path class="st0_school-84" d="M335.7,323.6c-0.4,0-0.6-0.3-0.7-0.6c0-0.3,0.2-0.5,0.4-0.6c0.4-0.2,0.6-0.7,0.9-1.6c0.1-1,0.7-1.9,1.5-2.4&#10;&#9;&#9;c0.3-0.2,0.7,0,0.9,0.3c0,0,0,0,0,0c0.2,0.3,0,0.7-0.3,0.9c0,0,0,0,0,0c-0.5,0.2-0.6,0.9-0.9,1.6c-0.1,1-0.7,1.9-1.6,2.5&#10;&#9;&#9;C335.9,323.6,335.8,323.7,335.7,323.6z"/>
	<path class="st0_school-84" d="M440.5,325.2c-0.2,0-0.4-0.1-0.6-0.3l-2.4-4.2c-0.2-0.3-0.1-0.7,0.2-0.9c0,0,0,0,0,0c0.3-0.2,0.7-0.1,0.9,0.2&#10;&#9;&#9;l2.4,4.2c0.2,0.3,0.1,0.7-0.2,0.9C440.7,325.2,440.6,325.2,440.5,325.2z"/>
	<path class="st0_school-84" d="M443.7,323.4c-0.3,0-0.6-0.2-0.6-0.5c-0.3-1.6-0.2-3.2,0.2-4.8c0.2-0.7,0.7-1.2,1.4-1.4c0.4-0.1,0.8,0.1,1,0.5&#10;&#9;&#9;c0.2,0.3,0.1,0.7-0.2,0.9c-0.2,0.1-0.5,0.1-0.7,0c-0.1,0.1-0.2,0.2-0.2,0.4c-0.4,1.4-0.5,2.8-0.2,4.2c0.1,0.3-0.2,0.7-0.5,0.7&#10;&#9;&#9;C443.8,323.4,443.8,323.4,443.7,323.4L443.7,323.4z"/>
	<path class="st0_school-84" d="M447.5,323.7c-0.3,0-0.6-0.3-0.6-0.6c-0.1-2.2,1.2-4.2,3.2-5c0.3-0.1,0.7,0.1,0.8,0.4c0.1,0.3-0.1,0.7-0.4,0.8&#10;&#9;&#9;l0,0c-1.5,0.6-2.5,2.1-2.4,3.7C448.2,323.4,447.9,323.7,447.5,323.7C447.6,323.7,447.6,323.7,447.5,323.7L447.5,323.7z"/>
	<path class="st0_school-84" d="M294.9,318.4c-0.2,0-0.5-0.1-0.6-0.4c-0.6-1.2-1.3-2.2-2.2-3.2c-0.2-0.3-0.2-0.7,0.1-0.9s0.7-0.2,0.9,0.1l0,0&#10;&#9;&#9;c0.9,1,1.7,2.2,2.4,3.5c0.2,0.3,0,0.7-0.3,0.9C295.2,318.3,295,318.4,294.9,318.4z"/>
	<path class="st0_school-84" d="M297.6,317.9c-0.3,0-0.5-0.2-0.6-0.5c-0.4-1.3-0.3-2.8,0.1-4.1c0.1-0.3,0.5-0.5,0.9-0.3&#10;&#9;&#9;c0.3,0.1,0.4,0.4,0.4,0.7c-0.3,1.1-0.4,2.2-0.1,3.4c0.1,0.3-0.1,0.7-0.5,0.8C297.7,317.9,297.7,317.9,297.6,317.9z"/>
	<path class="st0_school-84" d="M301.4,318.4c-0.2,0-0.5-0.1-0.6-0.4c-0.7-1.3-0.2-2.8,0.3-4.1c0.1-0.4,0.4-0.7,0.7-1c0.3-0.2,0.7-0.3,1.1-0.2&#10;&#9;&#9;c0.3,0.1,0.6,0.3,0.7,0.6c0.1,0.3,0,0.7-0.4,0.8c0,0,0,0,0,0c-0.2,0.1-0.5,0-0.7-0.2c0,0.1-0.1,0.3-0.1,0.4&#10;&#9;&#9;c-0.4,1.1-0.8,2.2-0.3,3.1c0.2,0.3,0,0.7-0.3,0.9C301.6,318.4,301.5,318.5,301.4,318.4L301.4,318.4z"/>
	<path class="st0_school-84" d="M169.7,366L169.7,366c-0.4,0-0.6-0.3-0.6-0.7c0,0,0,0,0,0c0.1-1.3-0.1-2.5-0.5-3.7c-0.1-0.3,0.1-0.7,0.4-0.8&#10;&#9;&#9;s0.7,0.1,0.8,0.4c0.4,1.3,0.6,2.8,0.6,4.2C170.4,365.7,170.1,366,169.7,366C169.7,366,169.7,366,169.7,366z"/>
	<path class="st0_school-84" d="M172.1,364.7c-0.3,0-0.6-0.3-0.6-0.6c-0.1-1.4-0.1-2.9,0.1-4.3c0-0.4,0.4-0.6,0.7-0.6c0.4,0,0.6,0.4,0.6,0.7&#10;&#9;&#9;c0,0,0,0,0,0c-0.1,1.4-0.2,2.7-0.1,4.1C172.8,364.3,172.5,364.6,172.1,364.7C172.2,364.7,172.2,364.7,172.1,364.7L172.1,364.7z"/>
	<path class="st0_school-84" d="M175.4,365.2c-0.1,0-0.1,0-0.2,0c-0.3-0.1-0.5-0.5-0.4-0.8c0,0,0,0,0,0c0.4-1.5,1-2.9,1.7-4.3&#10;&#9;&#9;c0.2-0.3,0.5-0.4,0.9-0.3c0,0,0,0,0,0c0.3,0.2,0.4,0.6,0.3,0.9c-0.7,1.3-1.2,2.7-1.6,4.1C175.9,365,175.7,365.2,175.4,365.2z"/>
</g>
<g id="Plant_1_school-84">
	<path class="st0_school-84" d="M187.9,404.8c-0.3,0-0.6-0.2-0.6-0.6c-0.9-9-3.7-15.5-8.3-19.4c-3.1-2.5-7.1-3.6-11-3c-2.9,0.4-5.4,2-7,4.5&#10;&#9;&#9;c-0.2,0.3-0.6,0.4-0.9,0.2c-0.2-0.1-0.3-0.3-0.3-0.6c0.2-13.8-4.5-26.4-12.9-34.6c-9.4-9.1-23.3-11.9-33.8-6.6&#10;&#9;&#9;c-5.9,2.9-10.8,9.5-8.7,15.6c0.1,0.3-0.1,0.7-0.4,0.8c-0.2,0.1-0.4,0-0.6-0.1c-7.7-6.5-17.4-8.9-25.5-6.2c-9,3-14.9,13-12.9,21.7&#10;&#9;&#9;c0,0.2,0,0.5-0.2,0.6c-0.2,0.2-0.4,0.2-0.7,0.1c-5.5-2-11.6-0.7-15.9,3.4c-4.2,4.2-5.9,10.4-4.5,16.2c0.1,0.3-0.1,0.7-0.5,0.8&#10;&#9;&#9;c-0.3,0.1-0.7-0.1-0.8-0.5l0,0c-1.6-6.3,0.2-12.9,4.8-17.5c4.3-4.1,10.4-5.6,16.2-4c-1.5-9.1,4.7-19,14-22.1&#10;&#9;&#9;c8-2.7,17.5-0.7,25.3,5.2c-0.8-6.1,4-12.4,9.8-15.2c11-5.4,25.6-2.6,35.3,6.9c8.3,8.1,13.1,20.2,13.3,33.7c1.8-1.9,4.2-3.1,6.7-3.5&#10;&#9;&#9;c4.3-0.6,8.6,0.5,12,3.3c4.9,4.1,7.9,10.9,8.8,20.2c0,0.4-0.2,0.7-0.6,0.7c0,0,0,0,0,0L187.9,404.8z"/>
	<path class="st0_school-84" d="M89.1,373.8c-0.3,0-0.6-0.3-0.7-0.6c0-0.1,0-0.2,0.1-0.3c1.7-3.8,4.9-6.7,7.7-9.4c1.9-2,4.2-3.6,6.7-4.8&#10;&#9;&#9;c2.6-0.9,5.4-1.2,8.2-0.9c9.6,0.7,17.2,5.1,20.1,11.6c0.1,0.3,0,0.7-0.3,0.8c0,0,0,0,0,0c-0.3,0.1-0.7,0-0.8-0.3&#10;&#9;&#9;c-2.8-6.1-9.9-10.2-19-10.9c-2.6-0.3-5.2,0-7.6,0.8c-2.3,1.1-4.5,2.7-6.2,4.6c-2.7,2.5-5.8,5.4-7.4,9&#10;&#9;&#9;C89.6,373.7,89.4,373.8,89.1,373.8z"/>
	<path class="st1_school-84" d="M280.5,304.8c1.1-4,2.3-7.9,4.5-11.3c2.5-3.8,6.4-6.9,10.9-7.2s9.3,3,9.6,7.5c1.1-3.9,5.1-6.1,8.9-5&#10;&#9;&#9;c3.9,1.1,6.1,5.1,5,8.9c-0.1,0.3-0.2,0.5-0.2,0.7c2.5-3.1,7.5-3.3,10.8-1.2c2.6,1.8,4.6,4.5,5.5,7.5L280.5,304.8z"/>
	<path class="st0_school-84" d="M335.5,305.4h-55c-0.2,0-0.4-0.1-0.5-0.2c-0.1-0.2-0.2-0.4-0.1-0.6c1-3.9,2.3-8,4.6-11.5&#10;&#9;&#9;c2.9-4.4,7.1-7.2,11.4-7.5c4-0.2,8.5,2.2,9.9,6.2c0.8-1.2,1.8-2.1,3.1-2.8c3.6-2.1,8.2-0.8,10.2,2.8c0.1,0.3,0.3,0.5,0.4,0.8&#10;&#9;&#9;c0.6,1.3,0.9,2.7,0.8,4.1c3-2.1,7.3-1.7,10.1,0.1c2.8,1.9,4.8,4.7,5.7,7.9c0.1,0.2,0,0.4-0.1,0.6&#10;&#9;&#9;C335.9,305.3,335.7,305.4,335.5,305.4z M281.3,304.1h53.3c-0.9-2.6-2.6-4.8-4.9-6.4c-2.9-1.9-7.6-1.9-10,1.1&#10;&#9;&#9;c-0.2,0.3-0.6,0.3-0.8,0.2c-0.3-0.2-0.4-0.5-0.3-0.8c1.4-3.4-0.1-7.2-3.5-8.7c-3.4-1.4-7.2,0.1-8.7,3.5c-0.1,0.3-0.2,0.6-0.3,1&#10;&#9;&#9;c-0.1,0.3-0.5,0.5-0.8,0.4c-0.3-0.1-0.4-0.3-0.5-0.6c-0.3-4.3-5-7.2-8.9-7s-7.8,2.8-10.4,6.9C283.6,297,282.2,300.5,281.3,304.1&#10;&#9;&#9;L281.3,304.1z"/>
	<path class="st1_school-84" d="M112.5,304.8c-1.1-4-2.3-7.9-4.5-11.3c-2.4-3.8-6.4-6.9-10.9-7.2s-9.3,3-9.6,7.5c-1.1-3.9-5.1-6.1-8.9-5&#10;&#9;&#9;c-3.9,1.1-6.1,5.1-5,8.9c0.1,0.3,0.2,0.5,0.2,0.7c-2.5-3.1-7.5-3.3-10.8-1.2c-2.6,1.8-4.6,4.5-5.5,7.5L112.5,304.8z"/>
	<path class="st0_school-84" d="M112.5,305.4h-55c-0.2,0-0.4-0.1-0.5-0.3c-0.1-0.2-0.2-0.4-0.1-0.6c0.9-3.2,3-6,5.7-7.9&#10;&#9;&#9;c2.9-1.8,7.1-2.1,10.1-0.1c-0.1-1.4,0.2-2.8,0.8-4c1.6-3.8,6.1-5.5,9.9-3.9c0.3,0.1,0.5,0.2,0.7,0.4c1.3,0.7,2.3,1.6,3.1,2.8&#10;&#9;&#9;c1.4-4,5.9-6.4,9.9-6.2c4.3,0.3,8.6,3,11.4,7.5c2.3,3.5,3.5,7.6,4.6,11.5c0.1,0.2,0,0.4-0.1,0.6&#10;&#9;&#9;C112.9,305.3,112.7,305.4,112.5,305.4z M58.4,304.1h53.3c-0.9-3.6-2.3-7.1-4.2-10.3c-2.6-4.1-6.5-6.6-10.4-6.9s-8.6,2.7-8.9,7&#10;&#9;&#9;c0,0.4-0.3,0.6-0.7,0.6c-0.3,0-0.5-0.2-0.6-0.5c-1-3.5-4.7-5.5-8.2-4.4c-3.5,1-5.5,4.7-4.4,8.2c0,0.1,0.1,0.3,0.1,0.4&#10;&#9;&#9;c0.1,0.3,0,0.6-0.3,0.8c-0.3,0.2-0.6,0.1-0.8-0.2c-2.3-2.9-7-2.9-10-1.1C61,299.3,59.3,301.5,58.4,304.1z"/>
	<path class="st0_school-84" d="M82.9,297.1c-0.2,0-0.3-0.1-0.5-0.2c-0.3-0.2-0.3-0.7,0-0.9c0,0,0,0,0,0c3.1-2.9,7.9-3.3,11.5-0.9&#10;&#9;&#9;c0.3,0.2,0.4,0.6,0.2,0.9c0,0,0,0,0,0c-0.2,0.3-0.6,0.4-0.9,0.1c-3.1-2-7.1-1.7-9.8,0.7C83.2,297,83,297.1,82.9,297.1z"/>
</g>
</svg>