<?xml version="1.0" encoding="UTF-8" standalone="no"?>
<!-- Created with Inkscape (http://www.inkscape.org/) -->

<svg
   width="500mm"
   height="500mm"
   viewBox="0 0 500 500"
   version="1.1"
   id="svg1"
   inkscape:version="1.3.2 (091e20e, 2023-11-25, custom)"
   sodipodi:docname="user-2.svg"
   xmlns:inkscape="http://www.inkscape.org/namespaces/inkscape"
   xmlns:sodipodi="http://sodipodi.sourceforge.net/DTD/sodipodi-0.dtd"
   xmlns="http://www.w3.org/2000/svg"
   xmlns:svg="http://www.w3.org/2000/svg">
  <sodipodi:namedview
     id="namedview1"
     pagecolor="#505050"
     bordercolor="#eeeeee"
     borderopacity="1"
     inkscape:showpageshadow="0"
     inkscape:pageopacity="0"
     inkscape:pagecheckerboard="0"
     inkscape:deskcolor="#505050"
     inkscape:document-units="mm"
     inkscape:zoom="0.2447271"
     inkscape:cx="294.20526"
     inkscape:cy="476.04046"
     inkscape:window-width="1920"
     inkscape:window-height="991"
     inkscape:window-x="-9"
     inkscape:window-y="-9"
     inkscape:window-maximized="1"
     inkscape:current-layer="layer1" />
  <defs
     id="defs1" />
  <g
     inkscape:label="Katman 1"
     inkscape:groupmode="layer"
     id="layer1">
    <rect
       style="fill:#7b1798;fill-opacity:1;fill-rule:nonzero;stroke-width:0.708199"
       id="rect14"
       width="572.75134"
       height="548.96637"
       x="-24.679001"
       y="-28.998854" />
    <g
       id="g74"
       transform="matrix(3.5799392,0,0,3.5799392,-103.2216,-79.572264)">
		<g
   id="g56">
			<g
   id="g51">
				<path
   style="fill:#757575"
   d="m 148.368,108.342 c -1.99,-9.074 -3.933,-17.768 -3.358,-27.297 1.607,-26.646 -27.13,-63.688 -55.853,-48.458 -6.068,3.218 -13.071,1.551 -19.113,4.86 -4.462,2.444 -8.116,6.401 -10.419,10.917 -4.109,8.06 -4.588,17.44 -4.545,26.486 0.038,7.926 -0.515,16.291 -1.312,24.349 -0.409,4.132 -0.638,8.406 -1.389,12.49 -1.875,10.193 -3.097,19.113 0.852,29.113 1.349,3.416 3.324,6.834 6.573,8.547 -0.472,-2.307 -0.594,-4.406 -0.613,-6.76 2.387,4.953 6.802,8.891 11.995,10.698 2.006,0.698 3.882,0.719 5.871,0.57 h -0.001 c 50.94,7.421 60.775,-4.407 65.448,-9.478 1.738,-1.886 4.555,-7.558 4.617,-10.122 0.493,1.591 0.985,3.182 1.478,4.773 4.136,-7.004 1.938,-20.795 -0.231,-30.688 z"
   id="path49" />

				<g
   id="g50">
					<path
   d="m 148.868,108.348 c -1.11,-5.063 -2.24,-10.134 -2.888,-15.281 -0.605,-4.808 -0.391,-9.488 -0.406,-14.307 -0.021,-6.8 -1.809,-13.557 -4.536,-19.754 C 135.561,46.559 125.47,34.539 112.144,30.3 c -5.76,-1.832 -11.954,-1.955 -17.745,-0.181 -4.31,1.321 -7.948,3.677 -12.494,4.354 -3.902,0.582 -7.91,0.753 -11.531,2.481 -18.669,8.905 -15.173,33.668 -16.164,50.488 -0.346,5.865 -0.912,11.718 -1.465,17.566 -0.538,5.697 -1.88,11.27 -2.395,16.968 -0.505,5.587 -0.166,11.207 1.575,16.567 1.387,4.271 3.417,8.58 7.447,10.903 0.118,0.068 0.989,0.209 0.933,-0.091 -0.422,-2.245 -0.581,-4.479 -0.613,-6.76 -0.328,0.014 -0.655,0.029 -0.983,0.043 1.884,3.73 4.712,6.869 8.317,9.006 1.48,0.878 3.086,1.646 4.759,2.073 0.859,0.219 1.739,0.34 2.624,0.39 0.426,0.024 0.963,0.1 1.382,0.014 -0.051,0.011 1.35,-0.494 1.016,-0.438 -0.425,0.071 -0.164,0.327 0.116,0.367 15.193,2.188 31.36,3.939 46.572,0.864 6.351,-1.284 12.586,-3.645 17.318,-8.201 3.344,-3.22 6.456,-7.719 6.81,-12.449 -0.333,-0.004 -0.667,-0.007 -1,-0.011 0.493,1.591 0.985,3.182 1.478,4.773 0.082,0.265 0.849,0.302 0.982,0.064 2.337,-4.189 2.51,-9.255 2.285,-13.937 -0.274,-5.665 -1.298,-11.273 -2.5,-16.805 -0.067,-0.31 -1.05,-0.242 -1,-0.011 1.149,5.287 2.13,10.639 2.457,16.047 0.295,4.865 0.229,10.223 -2.207,14.589 0.327,0.021 0.654,0.042 0.982,0.064 -0.493,-1.591 -0.985,-3.182 -1.478,-4.773 -0.082,-0.264 -0.977,-0.316 -1,-0.011 -0.494,6.596 -6.015,12.685 -11.524,15.954 -8.192,4.86 -18.464,5.721 -27.765,5.826 -4.467,0.051 -8.936,-0.133 -13.389,-0.471 -2.507,-0.19 -5.01,-0.427 -7.509,-0.704 -2.891,-0.32 -6.295,-1.296 -9.127,-0.824 0.605,-0.101 -0.12,-0.386 -0.381,-0.37 -7.508,0.46 -13.983,-4.649 -17.252,-11.122 -0.103,-0.204 -0.987,-0.239 -0.983,0.043 0.032,2.281 0.19,4.516 0.613,6.76 0.311,-0.03 0.622,-0.061 0.933,-0.091 -7.837,-4.517 -9.431,-16.503 -9.066,-24.66 0.208,-4.652 1.105,-9.195 1.862,-13.776 0.76,-4.605 1.031,-9.3 1.459,-13.945 0.892,-9.698 0.748,-19.352 1.213,-29.059 0.425,-8.871 2.197,-18.228 8.282,-25.061 3.355,-3.767 7.552,-6.268 12.541,-7.127 3.821,-0.658 7.803,-0.717 11.445,-2.184 3.46,-1.394 6.526,-3.114 10.263,-3.785 3.653,-0.656 7.411,-0.524 11.022,0.323 13.34,3.132 23.675,14.634 29.575,26.482 3.302,6.631 5.538,13.973 5.727,21.416 0.122,4.79 -0.24,9.482 0.311,14.274 0.627,5.457 1.822,10.826 2.997,16.185 0.067,0.31 1.049,0.241 0.999,0.011 z"
   id="path50" />

				</g>

			</g>

			<g
   id="g55">
				<g
   id="g52">
					<path
   style="fill:#ffffff;stroke:#000000;stroke-linecap:round;stroke-linejoin:round;stroke-miterlimit:10"
   d="m 129.29,57.757 c 0.381,-0.36 0.754,-0.716 1.068,-1.04 1.512,-1.499 2.58,-3.507 3.612,-1.081 1.138,2.651 2.228,9.502 0.491,8.879 -1.299,-0.024 -3.13,-0.973 -4.675,-1.98"
   id="path51" />

				</g>

				<g
   id="g53">
					<path
   style="fill:#ffffff;stroke:#000000;stroke-linecap:round;stroke-linejoin:round;stroke-miterlimit:10"
   d="m 126.147,58.752 c -1.165,-1.009 -2.823,-1.192 -4.892,-1.801 -1.728,0.054 0.511,9.362 1.796,9.545 0.957,0.065 3.438,-3.292 4.266,-3.771"
   id="path52" />

				</g>

				<g
   id="g54">
					<path
   style="fill:#ffffff;stroke:#000000;stroke-linecap:round;stroke-linejoin:round;stroke-miterlimit:10"
   d="m 129.151,57.486 c -0.444,-0.507 -1.175,-0.667 -1.944,-0.429 -1.921,0.587 -0.793,2.37 -0.481,3.916 0.271,1.082 1.036,4.01 2.761,2.252 0.861,-0.885 -0.054,-4.504 -0.235,-5.508 z"
   id="path53" />

				</g>

			</g>

		</g>

		<g
   id="g60">
			<path
   style="fill:none;stroke:#2500ff;stroke-linecap:round;stroke-linejoin:round;stroke-miterlimit:10"
   d="m 97.249,143.517 c 0.066,-0.002 0.137,-0.012 0.203,-0.015 -0.035,-0.068 -0.074,-0.134 -0.107,-0.202 -0.028,0.076 -0.066,0.142 -0.096,0.217 z"
   id="path56" />

			<path
   style="fill:#ffffff;stroke:#000000;stroke-linecap:round;stroke-linejoin:round;stroke-miterlimit:10"
   d="m 95.383,143.509 c 0.599,0.029 1.223,0.032 1.866,0.008 0.03,-0.075 0.068,-0.141 0.096,-0.217 0.033,0.068 0.072,0.134 0.107,0.202 4.421,-0.199 9.673,-1.626 13.745,-4.293 -7.4,-6.863 -5.256,-18.508 -5.256,-18.508 l -14.943,-0.181 -0.949,0.181 c 0,0 2.045,11.106 -4.751,18.018 2.446,3.031 5.73,4.578 10.085,4.79 z"
   id="path57" />

			<path
   style="fill:#ffffff;stroke:#000000;stroke-linecap:round;stroke-linejoin:round;stroke-miterlimit:10"
   d="m 105.428,157.301 c 6.101,2.118 13.839,-7.494 16.943,-11.856 -3.405,-1.536 -6.794,-2.854 -9.905,-5.172 -0.454,-0.338 -0.871,-0.696 -1.268,-1.065 -4.071,2.667 -9.324,4.094 -13.745,4.293 1.716,3.377 4.473,12.585 7.975,13.8 z"
   id="path58" />

			<path
   style="fill:#ffffff;stroke:#000000;stroke-linecap:round;stroke-linejoin:round;stroke-miterlimit:10"
   d="m 87.544,157.87 c 5.406,-0.44 7.838,-9.589 9.705,-14.353 -0.642,0.024 -1.267,0.021 -1.866,-0.008 -4.355,-0.212 -7.639,-1.759 -10.085,-4.79 -0.536,0.546 -1.121,1.068 -1.773,1.554 -3.254,2.425 -6.812,3.756 -10.374,5.386 0.543,4.751 9.092,12.642 14.393,12.211 z"
   id="path59" />

			<path
   style="fill:#ffffff;stroke:#000000;stroke-linecap:round;stroke-linejoin:round;stroke-miterlimit:10"
   d="m 122.371,145.446 c -3.104,4.361 -10.842,13.974 -16.943,11.856 -3.501,-1.215 -6.259,-10.424 -7.975,-13.799 -0.066,0.003 -0.137,0.013 -0.203,0.015 -1.867,4.763 -4.299,13.912 -9.705,14.353 -5.301,0.432 -13.85,-7.46 -14.394,-12.211 -6.194,2.834 -12.403,6.574 -17.063,18.556 h 30.513 22.788 30.513 c -4.777,-12.286 -11.183,-15.907 -17.531,-18.77 z"
   id="path60" />

		</g>

		<g
   id="g73">
			<g
   id="g61">
				<path
   style="fill:#ffffff;stroke:#000000;stroke-miterlimit:10"
   d="m 127.14,95.215 c 0.857,-5.709 -1.347,-19.773 -2.544,-22.447 0,0 -13.528,-3.019 -17.482,-4.779 -4.902,-2.183 -8.51,-5.487 -11.782,-9.568 -1.362,-1.698 -4.324,-6.542 -6.542,-11.552 -0.603,1.587 -7.711,22.192 -20.447,25.769 -0.826,0.232 -0.614,1.753 -0.698,3.118 -0.195,3.166 0.325,18.123 1.909,19.303 -1.105,-0.161 -2.135,-0.976 -3.05,-2.033 -0.124,-0.047 -0.247,-0.09 -0.365,-0.118 -2.981,-0.692 -4.026,1.459 -4.244,4.017 -0.394,4.623 2.684,8.942 7.126,11.193 0.746,0.378 2.31,0.786 3.924,0.97 5.053,9.818 13.296,16.411 25.051,15.809 11.755,0.602 19.998,-5.991 25.051,-15.809 1.614,-0.184 3.179,-0.592 3.924,-0.97 4.442,-2.251 7.52,-6.57 7.126,-11.193 -0.218,-2.558 -1.263,-4.709 -4.244,-4.017 -0.039,0.009 -0.08,0.027 -0.119,0.038 -0.809,1.186 -1.688,2.09 -2.594,2.269 z"
   id="path61" />

			</g>

			<g
   id="g72">
				<g
   id="g62">
					<path
   d="m 96.224,92.611 c 1.01,0.276 2.007,0.169 3.057,0.237 0.526,0.02 1.064,0.087 1.619,0.246 0.533,0.19 1.155,0.425 1.49,1.205 0.232,0.782 -0.105,1.404 -0.404,1.87 -0.335,0.469 -0.719,0.868 -1.153,1.201 -0.431,0.334 -0.904,0.605 -1.401,0.816 -0.496,0.196 -1.05,0.345 -1.577,0.248 1.005,-0.276 1.76,-0.976 2.459,-1.646 0.327,-0.361 0.648,-0.725 0.871,-1.123 0.238,-0.381 0.363,-0.817 0.261,-1.037 -0.037,-0.205 -0.442,-0.5 -0.855,-0.641 -0.421,-0.173 -0.91,-0.26 -1.405,-0.367 -0.976,-0.204 -2.111,-0.342 -2.962,-1.009 z"
   id="path62" />

				</g>

				<g
   id="g63">
					<path
   d="m 75.253,75.844 c 0.724,-0.869 1.533,-1.655 2.454,-2.334 0.918,-0.692 1.988,-1.197 3.096,-1.531 1.118,-0.307 2.236,-0.47 3.365,-0.533 1.124,-0.062 2.266,-0.047 3.376,0.195 -1.115,0.175 -2.197,0.375 -3.28,0.579 -1.077,0.215 -2.16,0.419 -3.183,0.718 -1.027,0.291 -2.007,0.705 -2.955,1.226 -0.952,0.524 -1.885,1.129 -2.873,1.68 z"
   id="path63" />

				</g>

				<g
   id="g64">
					<path
   d="m 90.748,104.022 c 1.085,0.835 2.265,1.484 3.489,1.943 1.229,0.438 2.511,0.713 3.799,0.648 0.321,0.02 0.64,-0.053 0.961,-0.073 l 0.481,-0.051 0.472,-0.113 c 0.314,-0.078 0.639,-0.121 0.948,-0.226 0.305,-0.116 0.615,-0.223 0.928,-0.328 0.628,-0.203 1.2,-0.551 1.822,-0.81 0.597,-0.309 1.159,-0.681 1.78,-0.991 -0.479,0.486 -0.994,0.946 -1.516,1.404 -0.58,0.371 -1.126,0.826 -1.769,1.11 -1.238,0.673 -2.659,1.003 -4.085,1.077 -2.884,0.083 -5.696,-1.37 -7.31,-3.59 z"
   id="path64" />

				</g>

				<path
   d="m 84.455,89.821 c -1.021,1.021 -2.678,1.021 -3.7,-0.001 -1.022,-1.022 -1.022,-2.678 -10e-4,-3.7 1.021,-1.021 2.678,-1.021 3.7,10e-4 1.022,1.022 1.023,2.679 0.001,3.7 z"
   id="path65" />

				<path
   style="fill:#ffeef7"
   d="m 85.734,98.317 c 0,2.122 -2.685,3.843 -5.998,3.843 -3.313,0 -5.998,-1.72 -5.998,-3.843 0,-2.122 2.685,-3.842 5.998,-3.842 3.313,0 5.998,1.72 5.998,3.842 z"
   id="path66" />

				<g
   id="g67">
					<path
   d="m 120.737,75.844 c -0.988,-0.55 -1.921,-1.156 -2.873,-1.679 -0.948,-0.521 -1.928,-0.934 -2.955,-1.226 -1.024,-0.299 -2.107,-0.503 -3.183,-0.718 -1.083,-0.204 -2.165,-0.405 -3.28,-0.579 1.11,-0.242 2.252,-0.258 3.376,-0.195 1.129,0.063 2.247,0.226 3.365,0.533 1.108,0.334 2.178,0.838 3.096,1.531 0.921,0.678 1.73,1.464 2.454,2.333 z"
   id="path67" />

				</g>

				<path
   style="fill:#ffeef7"
   d="m 110.256,98.317 c 0,2.122 2.685,3.843 5.998,3.843 3.313,0 5.998,-1.72 5.998,-3.843 0,-2.122 -2.685,-3.842 -5.998,-3.842 -3.313,0 -5.998,1.72 -5.998,3.842 z"
   id="path68" />

				<g
   id="g69">
					<path
   d="m 65.333,98.033 c 0.784,0.086 1.478,0.549 2.065,1.035 0.595,0.498 1.098,1.085 1.545,1.71 0.439,0.634 0.796,1.34 1.051,2.045 0.267,0.708 0.469,1.415 0.659,2.161 -0.553,-0.543 -0.969,-1.19 -1.359,-1.817 -0.397,-0.631 -0.749,-1.238 -1.171,-1.819 -0.402,-0.596 -0.838,-1.168 -1.279,-1.737 -0.46,-0.555 -0.903,-1.112 -1.511,-1.578 z"
   id="path69" />

				</g>

				<path
   d="m 111.559,89.821 c 1.021,1.021 2.678,1.021 3.7,-0.001 1.022,-1.022 1.022,-2.678 0.001,-3.7 -1.021,-1.021 -2.678,-1.021 -3.7,10e-4 -1.022,1.022 -1.022,2.679 -0.001,3.7 z"
   id="path70" />

				<g
   id="g71">
					<path
   d="m 130.657,98.033 c -0.607,0.466 -1.05,1.023 -1.51,1.579 -0.441,0.569 -0.878,1.141 -1.279,1.737 -0.422,0.58 -0.774,1.188 -1.171,1.819 -0.39,0.627 -0.806,1.274 -1.359,1.817 0.189,-0.747 0.392,-1.454 0.659,-2.161 0.255,-0.705 0.611,-1.411 1.051,-2.045 0.446,-0.625 0.95,-1.212 1.545,-1.711 0.586,-0.485 1.279,-0.949 2.064,-1.035 z"
   id="path71" />

				</g>

			</g>

		</g>

	</g>
  </g>
</svg>
