<?xml version="1.0" encoding="UTF-8" standalone="no"?>
<!-- Created with Inkscape (http://www.inkscape.org/) -->

<svg
   width="500mm"
   height="500mm"
   viewBox="0 0 500 500"
   version="1.1"
   id="svg1"
   inkscape:version="1.3.2 (091e20e, 2023-11-25, custom)"
   sodipodi:docname="user-1.svg"
   xmlns:inkscape="http://www.inkscape.org/namespaces/inkscape"
   xmlns:sodipodi="http://sodipodi.sourceforge.net/DTD/sodipodi-0.dtd"
   xmlns="http://www.w3.org/2000/svg"
   xmlns:svg="http://www.w3.org/2000/svg">
  <sodipodi:namedview
     id="namedview1"
     pagecolor="#505050"
     bordercolor="#eeeeee"
     borderopacity="1"
     inkscape:showpageshadow="0"
     inkscape:pageopacity="0"
     inkscape:pagecheckerboard="0"
     inkscape:deskcolor="#505050"
     inkscape:document-units="mm"
     inkscape:zoom="0.2447271"
     inkscape:cx="294.20526"
     inkscape:cy="476.04046"
     inkscape:window-width="1920"
     inkscape:window-height="991"
     inkscape:window-x="-9"
     inkscape:window-y="-9"
     inkscape:window-maximized="1"
     inkscape:current-layer="layer1" />
  <defs
     id="defs1" />
  <g
     inkscape:label="Katman 1"
     inkscape:groupmode="layer"
     id="layer1">
    <rect
       style="fill:#7b1798;fill-opacity:1;fill-rule:nonzero;stroke-width:0.708199"
       id="rect14"
       width="572.75134"
       height="548.96637"
       x="-24.679001"
       y="-28.998854" />
    <g
       id="g283"
       transform="matrix(3.4694858,0,0,3.4694858,-1109.9799,-564.87882)">
		<g
   id="g270">
			<g
   id="g269">
				<path
   style="fill:#ffffff;stroke:#000000;stroke-linecap:round;stroke-linejoin:round;stroke-miterlimit:10"
   d="m 408.229,287.072 c -1.225,-0.913 -2.23,-1.947 -3.063,-3.047 -5.232,-6.907 -3.461,-16.526 -3.461,-16.526 l -14.943,-0.181 -0.949,0.181 c 0,0 1.761,9.57 -3.422,16.473 -0.621,0.828 -1.341,1.618 -2.175,2.349 l 3.834,2.232 10.406,6.057 10.212,-5.475 3.687,-1.977 c -0.042,-0.031 -0.085,-0.055 -0.126,-0.086 z"
   id="path265" />

				<path
   style="fill:#ffffff;stroke:#000000;stroke-linecap:round;stroke-linejoin:round;stroke-miterlimit:10"
   d="m 408.354,287.157 -3.687,1.977 -10.212,5.475 -10.406,-6.057 -3.834,-2.232 c -0.295,0.258 -0.602,0.509 -0.927,0.751 -0.286,0.213 -0.581,0.394 -0.871,0.591 l 3.406,1.983 12.632,7.353 12.503,-6.704 3.392,-1.819 c -0.675,-0.404 -1.342,-0.837 -1.996,-1.318 z"
   id="path266" />

				<path
   style="stroke:#000000;stroke-miterlimit:10"
   d="m 381.823,289.646 -3.406,-1.983 c -4.522,3.069 -9.556,4.342 -14.351,7.344 -4.496,2.814 -8.777,7.168 -12.214,16.008 h 6.308 c 2.696,-9.379 15.254,-17.122 23.663,-21.369 z"
   id="path267" />

				<path
   style="stroke:#000000;stroke-miterlimit:10"
   d="m 423.451,295.006 c -4.357,-2.727 -8.912,-4.018 -13.101,-6.53 l -3.392,1.819 c 8.354,4.361 19.835,11.801 22.4,20.719 h 6.308 c -3.438,-8.839 -7.719,-13.194 -12.215,-16.008 z"
   id="path268" />

				<path
   style="fill:#ffffff;stroke:#000000;stroke-miterlimit:10"
   d="m 406.958,290.295 -12.503,6.704 -12.632,-7.353 c -8.41,4.247 -20.967,11.99 -23.664,21.368 h 4.395 19.81 22.788 19.81 4.395 c -2.564,-8.918 -14.045,-16.358 -22.399,-20.719 z"
   id="path269" />

			</g>

			<path
   style="stroke:#000000;stroke-miterlimit:10"
   d="m 421.101,306.56 c 0,1.254 -2.406,2.27 -5.373,2.27 -2.967,0 -5.373,-1.016 -5.373,-2.27 0,-1.254 2.406,-2.27 5.373,-2.27 2.967,0 5.373,1.016 5.373,2.27 z"
   id="path270" />

		</g>

		<g
   id="g282">
			<g
   id="g273">
				<path
   style="fill:#757575"
   d="m 357.955,202.815 c -0.471,1.261 -0.817,2.555 -1.018,3.875 -1.387,9.133 -0.817,27.435 3.739,35.644 2.677,4.823 8.124,-1.918 12.763,-0.719 12.511,3.234 25.61,3.276 38.492,5.098 5.876,0 9.406,2.181 12.734,-2.662 3.328,-4.843 5.989,-15.543 6.372,-21.407 1.011,-15.478 -6.304,-35.874 -23.661,-40.078 -9.247,-2.239 -16.699,-3.064 -25.662,-0.154 -9.088,2.952 -20.13,10.695 -23.759,20.403 z"
   id="path271" />

				<g
   id="g272">
					<path
   d="m 357.465,202.72 c -2.57,7.304 -1.977,16.238 -1.218,23.814 0.378,3.771 0.962,7.564 2.079,11.193 0.662,2.153 1.521,5.561 3.934,6.385 2.213,0.755 4.57,-0.679 6.545,-1.481 2.555,-1.036 4.72,-0.744 7.353,-0.159 2.786,0.619 5.601,1.097 8.427,1.493 10.476,1.467 21.085,2.176 31.599,3.245 2.711,0.275 5.464,0.515 7.628,-1.458 2.647,-2.413 3.952,-6.524 5.004,-9.821 2.309,-7.228 3.376,-14.664 2.399,-22.218 -1.812,-14.019 -9.733,-27.947 -24.26,-31.453 -10.057,-2.427 -20.067,-2.802 -29.678,1.543 -8.337,3.77 -16.395,10.207 -19.812,18.917 -0.089,0.226 0.867,0.483 0.982,0.19 2.966,-7.56 9.497,-13.317 16.479,-17.16 8.272,-4.553 17.348,-5.846 26.623,-4.218 8.123,1.426 15.012,4.231 20.246,10.825 4.154,5.234 6.703,11.677 7.961,18.202 1.262,6.541 1.07,13.053 -0.393,19.537 -1.363,6.041 -3.603,17.302 -11.574,16.853 -9.068,-0.511 -18.185,-1.704 -27.219,-2.663 -5.121,-0.544 -10.236,-1.241 -15.254,-2.415 -2.795,-0.654 -4.613,-0.699 -7.318,0.399 -1.97,0.799 -4.753,2.658 -6.535,0.521 -0.989,-1.186 -1.515,-2.97 -1.988,-4.416 -1.267,-3.872 -1.889,-7.96 -2.277,-12.004 -0.718,-7.476 -1.283,-16.257 1.252,-23.461 0.08,-0.237 -0.882,-0.483 -0.985,-0.19 z"
   id="path272" />

				</g>

			</g>

			<g
   id="g274">
				<path
   style="fill:#ffffff;stroke:#000000;stroke-linecap:round;stroke-linejoin:round;stroke-miterlimit:10"
   d="m 429.86,243.724 c -0.218,-2.558 -1.263,-4.709 -4.244,-4.017 -0.197,0.046 -0.404,0.129 -0.616,0.226 -0.392,0.867 -0.879,1.584 -1.488,1.866 -2.375,1.101 -2.593,-3.862 -2.565,-5.493 0.154,-8.93 -0.505,-18.445 -2.191,-27.771 -0.319,-1.763 -1.78,-6.068 -3.74,-6.219 -1.649,-0.127 -15.65,7.683 -42.499,0.189 -4.188,-1.169 -6.101,23.52 -6.101,27.308 0,3.574 1.305,15.034 -1.238,12.512 -0.722,-0.16 -1.312,-0.938 -1.832,-1.918 -0.499,-0.336 -0.996,-0.595 -1.445,-0.699 -2.981,-0.692 -4.026,1.459 -4.244,4.017 -0.394,4.623 2.684,8.942 7.126,11.193 0.746,0.378 2.31,0.786 3.924,0.97 5.053,9.818 13.296,16.411 25.051,15.809 11.755,0.602 19.998,-5.991 25.051,-15.809 1.614,-0.184 3.179,-0.592 3.924,-0.97 4.443,-2.252 7.521,-6.571 7.127,-11.194 z"
   id="path273" />

			</g>

			<g
   id="g281">
				<g
   id="g275">
					<path
   d="m 393.226,224.433 c -0.166,4.138 0.117,8.226 1.07,12.186 l 0.179,0.741 0.092,0.359 c 0.018,0.059 0.062,0.152 0.114,0.246 0.227,0.39 0.551,0.798 0.856,1.208 0.608,0.831 1.267,1.659 1.745,2.641 0.229,0.491 0.458,1.021 0.441,1.643 0.024,0.632 -0.45,1.244 -0.963,1.47 -0.52,0.243 -1.055,0.322 -1.579,0.354 -0.525,0.044 -1.046,0.012 -1.562,-0.034 1.011,-0.13 2.098,-0.228 2.897,-0.746 0.854,-0.502 0.581,-1.495 0.077,-2.322 -0.504,-0.838 -1.147,-1.627 -1.802,-2.425 -0.326,-0.406 -0.65,-0.805 -0.955,-1.301 -0.074,-0.131 -0.15,-0.267 -0.211,-0.455 l -0.107,-0.389 -0.194,-0.761 c -0.955,-4.074 -1.049,-8.373 -0.098,-12.415 z"
   id="path274" />

				</g>

				<g
   id="g276">
					<path
   d="m 371.016,222.645 c 0.46,-1.187 1.145,-2.152 2.03,-2.998 0.896,-0.847 2.044,-1.48 3.242,-1.829 1.206,-0.343 2.369,-0.427 3.547,-0.356 1.167,0.091 2.368,0.319 3.473,0.978 -1.12,0.592 -2.143,1.005 -3.183,1.363 -1.028,0.35 -2.067,0.632 -3.002,0.896 -0.937,0.276 -1.839,0.561 -2.81,0.929 -0.989,0.358 -2.045,0.784 -3.297,1.017 z"
   id="path275" />

				</g>

				<g
   id="g277">
					<path
   d="m 386.512,250.839 c 1.084,0.836 2.265,1.485 3.489,1.945 1.229,0.439 2.511,0.713 3.799,0.649 0.321,0.02 0.64,-0.053 0.961,-0.073 l 0.481,-0.051 0.472,-0.113 c 0.314,-0.078 0.639,-0.121 0.948,-0.226 0.305,-0.116 0.615,-0.223 0.927,-0.328 0.628,-0.203 1.2,-0.551 1.822,-0.81 0.596,-0.309 1.159,-0.682 1.78,-0.992 -0.479,0.486 -0.994,0.946 -1.516,1.405 -0.58,0.371 -1.125,0.827 -1.769,1.11 -1.238,0.673 -2.659,1.004 -4.085,1.078 -2.884,0.081 -5.696,-1.373 -7.309,-3.594 z"
   id="path276" />

				</g>

				<g
   id="g278">
					<path
   d="m 416.501,222.645 c -1.252,-0.233 -2.308,-0.66 -3.296,-1.017 -0.97,-0.367 -1.873,-0.652 -2.809,-0.929 -0.936,-0.263 -1.974,-0.546 -3.002,-0.896 -1.04,-0.358 -2.064,-0.771 -3.183,-1.363 1.105,-0.659 2.306,-0.887 3.473,-0.978 1.178,-0.071 2.341,0.013 3.547,0.356 1.198,0.349 2.346,0.983 3.242,1.829 0.882,0.846 1.568,1.811 2.028,2.998 z"
   id="path277" />

				</g>

				<g
   id="g279">
					<path
   d="m 361.097,244.847 c 0.784,0.086 1.478,0.55 2.065,1.036 0.595,0.498 1.098,1.086 1.545,1.712 0.439,0.634 0.795,1.34 1.051,2.046 0.266,0.708 0.469,1.415 0.659,2.162 -0.553,-0.543 -0.969,-1.191 -1.359,-1.818 -0.397,-0.631 -0.749,-1.239 -1.171,-1.82 -0.402,-0.596 -0.838,-1.169 -1.279,-1.738 -0.461,-0.557 -0.904,-1.114 -1.511,-1.58 z"
   id="path278" />

				</g>

				<g
   id="g280">
					<path
   d="m 426.42,244.847 c -0.607,0.466 -1.051,1.023 -1.51,1.58 -0.441,0.569 -0.878,1.142 -1.279,1.738 -0.422,0.581 -0.774,1.189 -1.171,1.82 -0.39,0.627 -0.806,1.275 -1.359,1.818 0.189,-0.747 0.392,-1.454 0.659,-2.162 0.255,-0.705 0.611,-1.411 1.051,-2.046 0.446,-0.626 0.95,-1.213 1.545,-1.712 0.586,-0.486 1.28,-0.95 2.064,-1.036 z"
   id="path279" />

				</g>

				<path
   d="m 380.219,236.637 c -1.021,1.021 -2.678,1.021 -3.7,-0.001 -1.022,-1.022 -1.023,-2.678 -0.001,-3.7 1.021,-1.021 2.678,-1.021 3.7,0.001 1.022,1.022 1.022,2.679 10e-4,3.7 z"
   id="path280" />

				<path
   d="m 407.323,236.637 c 1.021,1.021 2.678,1.021 3.7,-0.001 1.022,-1.022 1.022,-2.678 10e-4,-3.7 -1.021,-1.021 -2.678,-1.021 -3.7,0.001 -1.022,1.022 -1.023,2.679 -0.001,3.7 z"
   id="path281" />

			</g>

		</g>

	</g>
  </g>
</svg>
