<?xml version="1.0" encoding="UTF-8" standalone="no"?>
<!-- Created with Inkscape (http://www.inkscape.org/) -->

<svg
   width="500mm"
   height="500mm"
   viewBox="0 0 500 500"
   version="1.1"
   id="svg1"
   inkscape:version="1.3.2 (091e20e, 2023-11-25, custom)"
   sodipodi:docname="user-3.svg"
   xmlns:inkscape="http://www.inkscape.org/namespaces/inkscape"
   xmlns:sodipodi="http://sodipodi.sourceforge.net/DTD/sodipodi-0.dtd"
   xmlns="http://www.w3.org/2000/svg"
   xmlns:svg="http://www.w3.org/2000/svg">
  <sodipodi:namedview
     id="namedview1"
     pagecolor="#505050"
     bordercolor="#eeeeee"
     borderopacity="1"
     inkscape:showpageshadow="0"
     inkscape:pageopacity="0"
     inkscape:pagecheckerboard="0"
     inkscape:deskcolor="#505050"
     inkscape:document-units="mm"
     inkscape:zoom="0.2447271"
     inkscape:cx="294.20526"
     inkscape:cy="476.04046"
     inkscape:window-width="1920"
     inkscape:window-height="991"
     inkscape:window-x="-9"
     inkscape:window-y="-9"
     inkscape:window-maximized="1"
     inkscape:current-layer="layer1" />
  <defs
     id="defs1">
    <clipPath
       id="SVGID_00000114048578625245316310000009981509828446945186_">
							<path
   id="use107"
   d="m 260.818,140.8 c -0.501,0.289 -1.021,0.537 -1.508,0.827 -4.545,2.711 -13.684,8.673 -13.684,8.673 -1.428,0.091 -11.787,-6.775 -15.191,-9.527 -0.122,0.084 -0.246,0.162 -0.368,0.244 l 0.368,23.198 h 26.566 3.779 l 0.368,-23.197 c -0.11,-0.073 -0.221,-0.143 -0.33,-0.218 z" />

						</clipPath>
    <path
       id="path10"
       d="m 260.818,140.8 c -0.501,0.289 -1.021,0.537 -1.508,0.827 -4.545,2.711 -13.684,8.673 -13.684,8.673 -1.428,0.091 -11.787,-6.775 -15.191,-9.527 -0.122,0.084 -0.246,0.162 -0.368,0.244 l 0.368,23.198 h 26.566 3.779 l 0.368,-23.197 c -0.11,-0.073 -0.221,-0.143 -0.33,-0.218 z" />
  </defs>
  <g
     inkscape:label="Katman 1"
     inkscape:groupmode="layer"
     id="layer1">
    <rect
       style="fill:#7b1798;fill-opacity:1;fill-rule:nonzero;stroke-width:0.708199"
       id="rect14"
       width="572.75134"
       height="548.96637"
       x="-24.679001"
       y="-28.998854" />
    <g
       id="g131"
       transform="matrix(3.6841144,0,0,3.6841144,-646.58618,-94.368091)">
		<g
   id="g117">
			<path
   style="fill:#ffffff;stroke:#000000;stroke-linecap:round;stroke-linejoin:round;stroke-miterlimit:10"
   d="m 257.972,138.374 c -6.398,-6.931 -4.418,-17.673 -4.418,-17.673 l -14.943,-0.181 -0.949,0.181 c 0,0 2.031,11.034 -4.686,17.951 4.037,2.816 10.057,6.462 12.651,7.648 -0.001,0 8.246,-5.528 12.345,-7.926 z"
   id="path100" />

			<g
   id="g116">
				<g
   id="g105">
					<g
   id="g102">
						<path
   style="fill:#757575;stroke:#000000;stroke-miterlimit:10"
   d="m 219.651,146.178 c -0.676,4.631 -1.386,9.743 -1.386,9.743 l 3.086,8.294 h 9.084 v 0 l -0.368,-23.198 c -3.303,2.194 -6.872,3.46 -10.416,5.161 z"
   id="path101" />

						<path
   style="fill:#757575;stroke:#000000;stroke-miterlimit:10"
   d="m 219.651,146.178 c -5.819,2.792 -11.57,6.772 -15.951,18.037 h 17.65 l -3.086,-8.294 c 10e-4,0 0.711,-5.112 1.387,-9.743 z"
   id="path102" />

					</g>

					<g
   id="g104">
						<path
   style="fill:#757575;stroke:#000000;stroke-miterlimit:10"
   d="m 271.564,146.179 c -0.011,-0.005 -0.022,-0.011 -0.033,-0.016 -0.871,-0.417 -1.743,-0.809 -2.612,-1.194 -0.086,-0.038 -0.173,-0.077 -0.259,-0.115 -0.034,-0.015 -0.067,-0.03 -0.101,-0.045 -2.536,-1.12 -5.041,-2.217 -7.41,-3.791 l -0.368,23.197 h 9.084 l 3.086,-8.294 c -0.001,0 -0.711,-5.112 -1.387,-9.742 z"
   id="path103" />

						<path
   style="fill:#757575;stroke:#000000;stroke-miterlimit:10"
   d="m 271.564,146.178 c 5.819,2.792 11.57,6.772 15.951,18.037 h -17.65 l 3.086,-8.294 c -0.001,0 -0.711,-5.112 -1.387,-9.743 z"
   id="path104" />

					</g>

				</g>

				<path
   style="stroke:#000000;stroke-miterlimit:10"
   d="m 268.558,144.809 c 0.034,0.015 0.067,0.03 0.101,0.045 -0.033,-0.015 -0.067,-0.03 -0.101,-0.045 z"
   id="path105" />

				<path
   style="fill:#ffffff;stroke:#000000;stroke-linecap:round;stroke-linejoin:round;stroke-miterlimit:10"
   d="m 268.659,144.854 c 0.086,0.038 0.173,0.077 0.259,0.115 -0.086,-0.039 -0.172,-0.077 -0.259,-0.115 z"
   id="path106" />

				<g
   id="g115">
					<path
   d="m 260.818,140.8 c -0.501,0.289 -1.021,0.537 -1.508,0.827 -4.545,2.711 -13.684,8.673 -13.684,8.673 -1.428,0.091 -11.787,-6.775 -15.191,-9.527 -0.122,0.084 -0.246,0.162 -0.368,0.244 l 0.368,23.198 h 26.566 3.779 l 0.368,-23.197 c -0.11,-0.073 -0.221,-0.143 -0.33,-0.218 z"
   id="path107" />

					<g
   id="g114">
						<defs
   id="defs107">
							<path
   id="path1"
   d="m 260.818,140.8 c -0.501,0.289 -1.021,0.537 -1.508,0.827 -4.545,2.711 -13.684,8.673 -13.684,8.673 -1.428,0.091 -11.787,-6.775 -15.191,-9.527 -0.122,0.084 -0.246,0.162 -0.368,0.244 l 0.368,23.198 h 26.566 3.779 l 0.368,-23.197 c -0.11,-0.073 -0.221,-0.143 -0.33,-0.218 z" />

						</defs>

						<clipPath
   id="clipPath1">
							<path
   id="use1"
   d="m 260.818,140.8 c -0.501,0.289 -1.021,0.537 -1.508,0.827 -4.545,2.711 -13.684,8.673 -13.684,8.673 -1.428,0.091 -11.787,-6.775 -15.191,-9.527 -0.122,0.084 -0.246,0.162 -0.368,0.244 l 0.368,23.198 h 26.566 3.779 l 0.368,-23.197 c -0.11,-0.073 -0.221,-0.143 -0.33,-0.218 z" />

						</clipPath>

						<g
   clip-path="url(#SVGID_00000114048578625245316310000009981509828446945186_)"
   id="g113">
							
								<line
   style="fill:none;stroke:#ffffff;stroke-linecap:round;stroke-linejoin:round;stroke-miterlimit:10"
   x1="232.377"
   y1="136.399"
   x2="232.377"
   y2="167.88699"
   id="line107" />

							
								<line
   style="fill:none;stroke:#ffffff;stroke-linecap:round;stroke-linejoin:round;stroke-miterlimit:10"
   x1="236.81"
   y1="136.399"
   x2="236.81"
   y2="167.88699"
   id="line108" />

							
								<line
   style="fill:none;stroke:#ffffff;stroke-linecap:round;stroke-linejoin:round;stroke-miterlimit:10"
   x1="241.242"
   y1="136.399"
   x2="241.242"
   y2="167.88699"
   id="line109" />

							
								<line
   style="fill:none;stroke:#ffffff;stroke-linecap:round;stroke-linejoin:round;stroke-miterlimit:10"
   x1="245.675"
   y1="136.399"
   x2="245.675"
   y2="167.88699"
   id="line110" />

							
								<line
   style="fill:none;stroke:#ffffff;stroke-linecap:round;stroke-linejoin:round;stroke-miterlimit:10"
   x1="249.814"
   y1="136.399"
   x2="249.814"
   y2="167.88699"
   id="line111" />

							
								<line
   style="fill:none;stroke:#ffffff;stroke-linecap:round;stroke-linejoin:round;stroke-miterlimit:10"
   x1="254.246"
   y1="136.399"
   x2="254.246"
   y2="167.88699"
   id="line112" />

							
								<line
   style="fill:none;stroke:#ffffff;stroke-linecap:round;stroke-linejoin:round;stroke-miterlimit:10"
   x1="258.67899"
   y1="136.399"
   x2="258.67899"
   y2="167.88699"
   id="line113" />

						</g>

						<path
   id="use113"
   d="m 260.818,140.8 c -0.501,0.289 -1.021,0.537 -1.508,0.827 -4.545,2.711 -13.684,8.673 -13.684,8.673 -1.428,0.091 -11.787,-6.775 -15.191,-9.527 -0.122,0.084 -0.246,0.162 -0.368,0.244 l 0.368,23.198 h 26.566 3.779 l 0.368,-23.197 c -0.11,-0.073 -0.221,-0.143 -0.33,-0.218 z"
   style="fill:none;stroke:#000000;stroke-miterlimit:10" />

					</g>

					<path
   style="fill:#ffffff;stroke:#000000;stroke-linecap:round;stroke-linejoin:round;stroke-miterlimit:10"
   d="m 257.972,138.374 c -4.099,2.398 -12.345,7.926 -12.345,7.926 -2.595,-1.187 -8.615,-4.832 -12.651,-7.648 -0.554,0.57 -1.159,1.116 -1.838,1.621 -0.232,0.173 -0.467,0.337 -0.702,0.5 3.404,2.752 11.959,8.049 15.191,9.527 0,0 10.477,-7.024 13.684,-8.673 0.504,-0.259 1.007,-0.538 1.508,-0.827 -0.248,-0.171 -0.495,-0.345 -0.74,-0.527 -0.79,-0.587 -1.486,-1.226 -2.107,-1.899 z"
   id="path114" />

				</g>

			</g>

		</g>

		<g
   id="g130">
			<g
   id="g118">
				<path
   d="m 282.227,81.839 c 0.671,-1.807 4.676,-9.383 -0.712,-8.434 1.047,-3.2 2.977,-10.781 -1.746,-12.272 1.278,-2.681 0.701,-8.821 -3.103,-8.802 -0.059,-1.842 0.084,-3.647 -0.735,-5.365 -0.856,-1.795 -2.711,-2.006 -3.459,-3.217 -0.851,-1.376 0.468,-3.037 -1.277,-4.427 -1.147,-0.913 -3.03,-0.446 -4.323,-0.45 -0.069,-5.564 -5.81,-4.492 -9.081,-2.745 -0.573,-4.917 -8.43,-2.35 -10.144,0.455 0.786,-4.824 -7.649,-4.919 -7.682,-0.297 -3.882,-1.801 -8.102,-3.213 -8.525,1.371 -1.794,-0.607 -3.825,-0.864 -5.143,-0.574 -2.66,0.587 -3.23,1.73 -3.214,4.848 -1.343,0.061 -4.734,-0.635 -5.807,-0.005 -1.639,0.962 -1.968,4.475 -1.863,6.306 -3.99,-0.45 -10.685,6.979 -5.297,8.43 -4.813,-0.028 -7.054,7.03 -1.417,7.928 -3.938,2.118 -3.592,8.481 0.716,9.892 -3.753,1.554 -2.971,7.104 0.685,8.117 -4.185,2.982 -0.548,9.06 4.219,8.25 -1.638,1.725 -1.7,4.633 -0.941,6.753 1.662,4.643 5.489,5.463 9.022,7.649 2.064,1.277 1.566,2.685 3.219,4.47 2.876,3.106 5.304,1.444 7.569,-0.47 1.434,1.678 3.497,3.889 5.745,2.841 1.178,-0.549 1.806,-3.093 2.304,-4.957 2.204,7.188 4.011,8.135 5.239,8.603 5.609,2.134 9.779,-1.85 10.889,-6.993 8.89,3.503 15.047,-0.443 17.228,-8.949 4.009,2.424 8.529,-8.265 3.601,-9.944 1.454,-0.644 3.292,-2.064 3.663,-3.677 0.202,-0.878 -0.718,-1.961 -0.558,-2.625 0.21,-0.866 0.622,-0.888 0.928,-1.71 z"
   id="path117" />

			</g>

			<g
   id="g122">
				<path
   style="fill:#ffffff;stroke:#000000;stroke-linecap:round;stroke-linejoin:round;stroke-miterlimit:10"
   d="m 281.708,96.925 c -0.218,-2.559 -1.263,-4.709 -4.244,-4.017 -0.359,0.083 -0.749,0.27 -1.147,0.511 -0.379,1.139 -1.011,1.973 -2.067,1.175 -2.713,-2.052 1.127,-17.709 -0.169,-17.438 -2.292,0.479 -3.586,-8.896 -0.237,-10.67 -2.219,1.483 -3.958,-0.361 -5.448,-1.519 -2.634,-2.049 -3.612,-4.866 -3.948,-8.663 -3.67,0 -5.678,-1.377 -6.99,-3.989 -1.894,1.76 -7.412,1.964 -9.231,-1.569 2.649,5.147 -4.468,5.699 -7.801,4.713 -2.456,-0.728 -3.781,-3.32 -4.49,-5.589 0.367,1.176 -0.2,1.983 -1.111,2.458 -1.269,1.839 -3.541,2.622 -6.533,2.007 -0.001,10e-4 -0.001,0.002 -0.002,0.004 -0.095,2.408 -0.312,4.539 -3.138,4.961 -0.114,4.22 -4.204,8.859 -6.105,8.207 1.855,3.014 2.705,8.577 -1.595,10.184 0.939,4.993 0.778,10.272 1.298,15.35 0.225,2.2 0.215,4.317 -2.342,2.754 -1.039,-0.635 -1.585,-1.544 -1.851,-2.566 -0.279,-0.145 -0.553,-0.259 -0.809,-0.319 -2.981,-0.692 -4.026,1.459 -4.244,4.017 -0.394,4.623 2.684,8.942 7.126,11.193 0.746,0.378 2.31,0.786 3.924,0.97 5.053,9.818 13.296,16.411 25.051,15.809 11.755,0.602 19.998,-5.991 25.051,-15.809 1.614,-0.184 3.179,-0.592 3.924,-0.97 4.445,-2.253 7.523,-6.572 7.128,-11.195 z"
   id="path118" />

				<g
   id="g121">
					<path
   d="m 214.71,87.497 c -0.189,1.668 -0.632,3.885 -0.151,5.73 0.336,0.174 0.681,0.396 1.022,0.652 -0.381,-2.092 -0.675,-4.225 -0.871,-6.382 z"
   id="path119" />

					<g
   id="g120">
						<path
   d="m 214.21,87.512 c -0.154,1.284 -0.374,2.569 -0.365,3.866 0.003,0.475 -0.075,1.483 0.214,1.864 0.223,0.293 0.783,0.529 1.093,0.751 0.13,0.092 0.979,0.156 0.928,-0.13 -0.378,-2.116 -0.669,-4.242 -0.871,-6.382 -0.027,-0.292 -1.024,-0.241 -0.999,0.031 0.202,2.14 0.493,4.266 0.871,6.382 0.309,-0.043 0.619,-0.087 0.928,-0.13 -0.585,-0.418 -0.932,-0.631 -1.104,-1.364 -0.124,-0.529 -0.072,-1.156 -0.049,-1.694 0.047,-1.081 0.224,-2.152 0.353,-3.225 0.031,-0.249 -0.962,-0.277 -0.999,0.031 z"
   id="path120" />

					</g>

				</g>

			</g>

			<g
   id="g129">
				<g
   id="g123">
					<path
   d="m 245.075,77.634 c -0.013,1.131 0.253,2.221 0.531,3.297 0.289,1.077 0.612,2.144 0.996,3.193 0.753,2.101 1.556,4.187 2.444,6.235 0.433,1.028 0.891,2.046 1.384,3.038 0.238,0.501 0.496,0.989 0.767,1.454 0.137,0.208 0.295,0.478 0.407,0.581 l 0.043,0.057 c -0.05,-0.04 0.208,0.18 0.199,0.245 0.07,0.174 0.066,0.271 0.069,0.368 0,0.191 -0.027,0.354 -0.073,0.523 -0.051,0.168 -0.106,0.336 -0.258,0.525 -0.037,0.046 -0.093,0.097 -0.156,0.14 -0.084,0.051 -0.15,0.075 -0.168,0.079 l -0.202,0.069 -0.812,0.263 c -0.544,0.167 -1.091,0.319 -1.644,0.45 -1.112,0.232 -2.228,0.431 -3.357,0.5 1.091,-0.292 2.172,-0.585 3.222,-0.971 0.528,-0.179 1.053,-0.367 1.569,-0.574 l 0.77,-0.32 0.191,-0.083 0.043,-0.02 c -0.008,0 -0.015,0.003 -0.021,0.008 -0.008,10e-4 -0.009,0.006 -0.004,-0.005 0.021,-0.034 0.062,-0.137 0.079,-0.24 0.02,-0.104 0.027,-0.223 0.018,-0.312 0.001,-0.043 -0.023,-0.089 -0.007,-0.044 -0.03,-0.005 0.163,0.176 0.068,0.082 l -0.104,-0.094 c -0.314,-0.272 -0.422,-0.507 -0.611,-0.755 -0.316,-0.493 -0.604,-0.989 -0.87,-1.493 -0.533,-1.009 -1.005,-2.039 -1.46,-3.076 -0.877,-2.087 -1.668,-4.212 -2.257,-6.402 -0.557,-2.174 -1.155,-4.454 -0.796,-6.718 z"
   id="path122" />

				</g>

				<g
   id="g124">
					<path
   d="m 222.865,75.846 c 0.46,-1.187 1.145,-2.152 2.03,-2.998 0.896,-0.846 2.044,-1.48 3.242,-1.829 1.206,-0.343 2.369,-0.427 3.547,-0.356 1.167,0.091 2.368,0.319 3.473,0.978 -1.12,0.592 -2.143,1.005 -3.183,1.363 -1.028,0.35 -2.067,0.632 -3.002,0.896 -0.937,0.276 -1.839,0.561 -2.81,0.929 -0.989,0.358 -2.045,0.784 -3.297,1.017 z"
   id="path123" />

				</g>

				<g
   id="g125">
					<path
   d="m 238.36,104.04 c 1.084,0.836 2.265,1.485 3.489,1.945 1.229,0.439 2.511,0.713 3.799,0.649 0.321,0.021 0.64,-0.053 0.961,-0.073 l 0.481,-0.051 0.472,-0.113 c 0.314,-0.078 0.639,-0.121 0.948,-0.226 0.305,-0.116 0.615,-0.223 0.928,-0.328 0.628,-0.203 1.2,-0.551 1.822,-0.81 0.596,-0.309 1.159,-0.682 1.78,-0.992 -0.479,0.487 -0.994,0.946 -1.516,1.405 -0.58,0.371 -1.125,0.827 -1.769,1.11 -1.238,0.673 -2.659,1.004 -4.085,1.078 -2.884,0.081 -5.696,-1.373 -7.31,-3.594 z"
   id="path124" />

				</g>

				<g
   id="g126">
					<path
   d="m 268.349,75.846 c -1.252,-0.233 -2.308,-0.66 -3.296,-1.017 -0.97,-0.367 -1.873,-0.652 -2.81,-0.929 -0.936,-0.263 -1.974,-0.546 -3.002,-0.896 -1.04,-0.358 -2.064,-0.771 -3.183,-1.363 1.105,-0.659 2.306,-0.887 3.473,-0.978 1.178,-0.072 2.341,0.013 3.547,0.356 1.198,0.349 2.346,0.983 3.242,1.829 0.884,0.846 1.569,1.811 2.029,2.998 z"
   id="path125" />

				</g>

				<g
   id="g127">
					<path
   d="m 212.946,98.048 c 0.785,0.086 1.478,0.55 2.065,1.036 0.595,0.498 1.098,1.086 1.545,1.712 0.439,0.634 0.795,1.34 1.051,2.046 0.266,0.708 0.469,1.415 0.659,2.162 -0.553,-0.543 -0.969,-1.191 -1.359,-1.818 -0.397,-0.631 -0.749,-1.239 -1.171,-1.82 -0.402,-0.596 -0.838,-1.168 -1.279,-1.738 -0.461,-0.557 -0.904,-1.114 -1.511,-1.58 z"
   id="path126" />

				</g>

				<g
   id="g128">
					<path
   d="m 278.269,98.048 c -0.607,0.466 -1.051,1.023 -1.51,1.58 -0.441,0.569 -0.878,1.142 -1.279,1.738 -0.422,0.581 -0.774,1.189 -1.171,1.82 -0.39,0.627 -0.806,1.275 -1.359,1.818 0.189,-0.747 0.392,-1.454 0.659,-2.162 0.255,-0.705 0.611,-1.411 1.051,-2.046 0.446,-0.626 0.95,-1.213 1.545,-1.712 0.586,-0.486 1.279,-0.95 2.064,-1.036 z"
   id="path127" />

				</g>

				<path
   d="m 232.068,89.838 c -1.021,1.021 -2.678,1.021 -3.7,-10e-4 -1.022,-1.022 -1.023,-2.678 -0.001,-3.7 1.021,-1.021 2.678,-1.021 3.7,0.001 1.022,1.022 1.022,2.679 0.001,3.7 z"
   id="path128" />

				<path
   d="m 259.171,89.838 c 1.021,1.021 2.678,1.021 3.7,-10e-4 1.022,-1.022 1.022,-2.678 0.001,-3.7 -1.021,-1.021 -2.678,-1.021 -3.7,0.001 -1.022,1.022 -1.022,2.679 -0.001,3.7 z"
   id="path129" />

			</g>

		</g>

	</g>
  </g>
</svg>
